<svg width="18" height="18" viewBox="0 0 18 18" fill="none" xmlns="http://www.w3.org/2000/svg">
<g clip-path="url(#clip0_471_3914)">
<path d="M15.75 3.9375H2.25C1.93934 3.9375 1.6875 4.18934 1.6875 4.5V6.1875C1.6875 6.49816 1.93934 6.75 2.25 6.75H15.75C16.0607 6.75 16.3125 6.49816 16.3125 6.1875V4.5C16.3125 4.18934 16.0607 3.9375 15.75 3.9375Z" stroke="#1F1F1F" stroke-width="1.5" stroke-linecap="round" stroke-linejoin="round"/>
<path d="M15.1875 6.75V13.5C15.1875 13.6492 15.1282 13.7923 15.0227 13.8977C14.9173 14.0032 14.7742 14.0625 14.625 14.0625H3.375C3.22582 14.0625 3.08274 14.0032 2.97725 13.8977C2.87176 13.7923 2.8125 13.6492 2.8125 13.5V6.75" stroke="#1F1F1F" stroke-width="1.5" stroke-linecap="round" stroke-linejoin="round"/>
<path d="M7.3125 9.5625H10.6875" stroke="#1F1F1F" stroke-width="1.5" stroke-linecap="round" stroke-linejoin="round"/>
</g>
<defs>
<clipPath id="clip0_471_3914">
<rect width="18" height="18" fill="white"/>
</clipPath>
</defs>
</svg>
