<svg width="18" height="18" viewBox="0 0 18 18" fill="none" xmlns="http://www.w3.org/2000/svg">
<g clip-path="url(#clip0_235_8034)">
<path d="M9 9.70312C9.38833 9.70312 9.70312 9.38833 9.70312 9C9.70312 8.61167 9.38833 8.29688 9 8.29688C8.61167 8.29688 8.29688 8.61167 8.29688 9C8.29688 9.38833 8.61167 9.70312 9 9.70312Z" fill="#1F1F1F"/>
<path d="M4.21875 9.70312C4.60708 9.70312 4.92188 9.38833 4.92188 9C4.92188 8.61167 4.60708 8.29688 4.21875 8.29688C3.83042 8.29688 3.51562 8.61167 3.51562 9C3.51562 9.38833 3.83042 9.70312 4.21875 9.70312Z" fill="#1F1F1F"/>
<path d="M13.7812 9.70312C14.1696 9.70312 14.4844 9.38833 14.4844 9C14.4844 8.61167 14.1696 8.29688 13.7812 8.29688C13.3929 8.29688 13.0781 8.61167 13.0781 9C13.0781 9.38833 13.3929 9.70312 13.7812 9.70312Z" fill="#1F1F1F"/>
</g>
<defs>
<clipPath id="clip0_235_8034">
<rect width="18" height="18" fill="white"/>
</clipPath>
</defs>
</svg>
