<svg width="18" height="18" viewBox="0 0 18 18" fill="none" xmlns="http://www.w3.org/2000/svg">
<g clip-path="url(#clip0_471_4942)">
<path d="M4.5 3.9375H2.8125C2.51413 3.9375 2.22798 4.05603 2.017 4.267C1.80603 4.47798 1.6875 4.76413 1.6875 5.0625C1.6875 5.36087 1.80603 5.64702 2.017 5.85799C2.22798 6.06897 2.51413 6.1875 2.8125 6.1875H3.9375C4.23587 6.1875 4.52202 6.30603 4.73299 6.51701C4.94397 6.72798 5.0625 7.01413 5.0625 7.3125C5.0625 7.61087 4.94397 7.89702 4.73299 8.10799C4.52202 8.31897 4.23587 8.4375 3.9375 8.4375H1.96875" stroke="#1F1F1F" stroke-width="1.3" stroke-linecap="round" stroke-linejoin="round"/>
<path d="M3.375 3.375V3.9375" stroke="#1F1F1F" stroke-width="1.3" stroke-linecap="round" stroke-linejoin="round"/>
<path d="M3.375 8.4375V9" stroke="#1F1F1F" stroke-width="1.3" stroke-linecap="round" stroke-linejoin="round"/>
<path d="M6.75 3.9375H15.75V13.5C15.75 13.6492 15.6907 13.7923 15.5852 13.8977C15.4798 14.0032 15.3367 14.0625 15.1875 14.0625H2.8125C2.66332 14.0625 2.52024 14.0032 2.41475 13.8977C2.30926 13.7923 2.25 13.6492 2.25 13.5V10.6875" stroke="#1F1F1F" stroke-width="1.3" stroke-linecap="round" stroke-linejoin="round"/>
<path d="M7.3125 7.3125H15.75" stroke="#1F1F1F" stroke-width="1.3" stroke-linecap="round" stroke-linejoin="round"/>
<path d="M5.625 10.6875H15.75" stroke="#1F1F1F" stroke-width="1.3" stroke-linecap="round" stroke-linejoin="round"/>
<path d="M11.8125 7.3125V14.0625" stroke="#1F1F1F" stroke-width="1.3" stroke-linecap="round" stroke-linejoin="round"/>
</g>
<defs>
<clipPath id="clip0_471_4942">
<rect width="18" height="18" fill="white"/>
</clipPath>
</defs>
</svg>
