<svg width="18" height="18" viewBox="0 0 18 18" fill="none" xmlns="http://www.w3.org/2000/svg">
<g clip-path="url(#clip0_235_7629)">
<path d="M14.625 2.25H3.375C3.07663 2.25 2.79048 2.36853 2.5795 2.5795C2.36853 2.79048 2.25 3.07663 2.25 3.375V14.625C2.25 14.9234 2.36853 15.2095 2.5795 15.4205C2.79048 15.6315 3.07663 15.75 3.375 15.75H14.625C14.9234 15.75 15.2095 15.6315 15.4205 15.4205C15.6315 15.2095 15.75 14.9234 15.75 14.625V3.375C15.75 3.07663 15.6315 2.79048 15.4205 2.5795C15.2095 2.36853 14.9234 2.25 14.625 2.25ZM11.8125 9.5625H6.1875C6.03832 9.5625 5.89524 9.50324 5.78975 9.39775C5.68426 9.29226 5.625 9.14918 5.625 9C5.625 8.85082 5.68426 8.70774 5.78975 8.60225C5.89524 8.49676 6.03832 8.4375 6.1875 8.4375H11.8125C11.9617 8.4375 12.1048 8.49676 12.2102 8.60225C12.3157 8.70774 12.375 8.85082 12.375 9C12.375 9.14918 12.3157 9.29226 12.2102 9.39775C12.1048 9.50324 11.9617 9.5625 11.8125 9.5625Z" fill="#D85A2B"/>
</g>
<defs>
<clipPath id="clip0_235_7629">
<rect width="18" height="18" fill="white"/>
</clipPath>
</defs>
</svg>
