<svg width="18" height="18" viewBox="0 0 18 18" fill="none" xmlns="http://www.w3.org/2000/svg">
<g clip-path="url(#clip0_9_1479)">
<path d="M5.9253 12.0748L2.05178 10.6474C1.94498 10.608 1.85282 10.5368 1.78773 10.4434C1.72264 10.35 1.68774 10.2389 1.68774 10.125C1.68774 10.0112 1.72264 9.90004 1.78773 9.80663C1.85282 9.71322 1.94498 9.64201 2.05178 9.60258L5.9253 8.17524L7.35264 4.30172C7.39207 4.19492 7.46328 4.10276 7.55669 4.03767C7.6501 3.97258 7.76122 3.93768 7.87507 3.93768C7.98892 3.93768 8.10003 3.97258 8.19344 4.03767C8.28685 4.10276 8.35806 4.19492 8.39749 4.30172L9.82483 8.17524L13.6983 9.60258C13.8052 9.64201 13.8973 9.71322 13.9624 9.80663C14.0275 9.90004 14.0624 10.0112 14.0624 10.125C14.0624 10.2389 14.0275 10.35 13.9624 10.4434C13.8973 10.5368 13.8052 10.608 13.6983 10.6474L9.82483 12.0748L8.39749 15.9483C8.35806 16.0551 8.28685 16.1473 8.19344 16.2123C8.10003 16.2774 7.98892 16.3123 7.87507 16.3123C7.76122 16.3123 7.6501 16.2774 7.55669 16.2123C7.46328 16.1473 7.39207 16.0551 7.35264 15.9483L5.9253 12.0748Z" stroke="white" stroke-width="1.5" stroke-linecap="round" stroke-linejoin="round"/>
<path d="M12.375 1.125V4.5" stroke="white" stroke-width="1.5" stroke-linecap="round" stroke-linejoin="round"/>
<path d="M15.75 5.0625V7.3125" stroke="white" stroke-width="1.5" stroke-linecap="round" stroke-linejoin="round"/>
<path d="M10.6875 2.8125H14.0625" stroke="white" stroke-width="1.5" stroke-linecap="round" stroke-linejoin="round"/>
<path d="M14.625 6.1875H16.875" stroke="white" stroke-width="1.5" stroke-linecap="round" stroke-linejoin="round"/>
</g>
<defs>
<clipPath id="clip0_9_1479">
<rect width="18" height="18" fill="white"/>
</clipPath>
</defs>
</svg>
