<svg width="18" height="18" viewBox="0 0 18 18" fill="none" xmlns="http://www.w3.org/2000/svg">
<g clip-path="url(#clip0_471_1884)">
<path d="M14.625 2.8125H3.375C3.06434 2.8125 2.8125 3.06434 2.8125 3.375V14.625C2.8125 14.9357 3.06434 15.1875 3.375 15.1875H14.625C14.9357 15.1875 15.1875 14.9357 15.1875 14.625V3.375C15.1875 3.06434 14.9357 2.8125 14.625 2.8125Z" stroke="#1F1F1F" stroke-width="1.5" stroke-linecap="round" stroke-linejoin="round"/>
<path d="M9 5.0625V10.6875" stroke="#1F1F1F" stroke-width="1.5" stroke-linecap="round" stroke-linejoin="round"/>
<path d="M2.8125 11.25H5.39227C5.54125 11.2501 5.68412 11.3092 5.78953 11.4145L7.14797 12.773C7.25338 12.8783 7.39625 12.9374 7.54523 12.9375H10.4548C10.6038 12.9374 10.7466 12.8783 10.852 12.773L12.2105 11.4145C12.3159 11.3092 12.4587 11.2501 12.6077 11.25H15.1875" stroke="#1F1F1F" stroke-width="1.5" stroke-linecap="round" stroke-linejoin="round"/>
<path d="M6.75 7.3125L9 5.0625L11.25 7.3125" stroke="#1F1F1F" stroke-width="1.5" stroke-linecap="round" stroke-linejoin="round"/>
</g>
<defs>
<clipPath id="clip0_471_1884">
<rect width="18" height="18" fill="white"/>
</clipPath>
</defs>
</svg>
