<svg width="18" height="18" viewBox="0 0 18 18" fill="none" xmlns="http://www.w3.org/2000/svg">
<g clip-path="url(#clip0_471_4902)">
<path d="M5.90625 11.25C7.92554 11.25 9.5625 9.61304 9.5625 7.59375C9.5625 5.57446 7.92554 3.9375 5.90625 3.9375C3.88696 3.9375 2.25 5.57446 2.25 7.59375C2.25 9.61304 3.88696 11.25 5.90625 11.25Z" stroke="#1F1F1F" stroke-width="1.3" stroke-linecap="round" stroke-linejoin="round"/>
<path d="M0.719238 14.0625C1.2811 13.1986 2.04983 12.4888 2.95564 11.9973C3.86146 11.5059 4.87567 11.2485 5.90619 11.2485C6.93672 11.2485 7.95093 11.5059 8.85674 11.9973C9.76255 12.4888 10.5313 13.1986 11.0931 14.0625" stroke="#1F1F1F" stroke-width="1.3" stroke-linecap="round" stroke-linejoin="round"/>
<path d="M12.0938 11.25C13.1242 11.2494 14.1385 11.5064 15.0444 11.9976C15.9503 12.4888 16.719 13.1986 17.2807 14.0625" stroke="#1F1F1F" stroke-width="1.3" stroke-linecap="round" stroke-linejoin="round"/>
<path d="M10.7358 4.19766C11.236 3.99818 11.774 3.91163 12.3115 3.94419C12.849 3.97676 13.3726 4.12764 13.845 4.38605C14.3174 4.64445 14.7269 5.00401 15.0442 5.43903C15.3615 5.87405 15.5789 6.37379 15.6807 6.90253C15.7825 7.43128 15.7662 7.97599 15.6331 8.49773C15.5 9.01947 15.2532 9.50536 14.9105 9.92069C14.5679 10.336 14.1377 10.6705 13.6507 10.9003C13.1637 11.1301 12.632 11.2495 12.0936 11.25" stroke="#1F1F1F" stroke-width="1.3" stroke-linecap="round" stroke-linejoin="round"/>
</g>
<defs>
<clipPath id="clip0_471_4902">
<rect width="18" height="18" fill="white"/>
</clipPath>
</defs>
</svg>
