<svg width="14" height="14" viewBox="0 0 14 14" fill="none" xmlns="http://www.w3.org/2000/svg">
<g clip-path="url(#clip0_471_3173)">
<path d="M7 8.75C8.20812 8.75 9.1875 7.77062 9.1875 6.5625C9.1875 5.35438 8.20812 4.375 7 4.375C5.79188 4.375 4.8125 5.35438 4.8125 6.5625C4.8125 7.77062 5.79188 8.75 7 8.75Z" stroke="#1F1F1F" stroke-width="1.3" stroke-linecap="round" stroke-linejoin="round"/>
<path d="M3.48901 10.903C3.81818 10.2547 4.32046 9.71012 4.94017 9.32974C5.55988 8.94937 6.27281 8.74802 6.99995 8.74802C7.72709 8.74802 8.44002 8.94937 9.05973 9.32974C9.67944 9.71012 10.1817 10.2547 10.5109 10.903" stroke="#1F1F1F" stroke-width="1.3" stroke-linecap="round" stroke-linejoin="round"/>
<path d="M12.1773 6.12499C12.3619 7.22166 12.1931 8.34862 11.6954 9.34314C11.1977 10.3377 10.3969 11.1483 9.40843 11.6579C8.42 12.1676 7.29516 12.3499 6.19634 12.1786C5.09752 12.0073 4.08157 11.4912 3.2952 10.7048C2.50883 9.91845 1.99273 8.9025 1.82141 7.80368C1.65009 6.70486 1.83243 5.58002 2.34209 4.59159C2.85175 3.60315 3.66236 2.80227 4.65688 2.30458C5.6514 1.80689 6.77836 1.63815 7.87503 1.82273" stroke="#1F1F1F" stroke-width="1.3" stroke-linecap="round" stroke-linejoin="round"/>
<path d="M10.0625 3.0625L10.9375 3.9375L12.6875 2.1875" stroke="#1F1F1F" stroke-width="1.3" stroke-linecap="round" stroke-linejoin="round"/>
</g>
<defs>
<clipPath id="clip0_471_3173">
<rect width="14" height="14" fill="white"/>
</clipPath>
</defs>
</svg>
