<svg width="18" height="18" viewBox="0 0 18 18" fill="none" xmlns="http://www.w3.org/2000/svg">
<g clip-path="url(#clip0_471_4989)">
<path d="M9 11.25C10.5533 11.25 11.8125 9.9908 11.8125 8.4375C11.8125 6.8842 10.5533 5.625 9 5.625C7.4467 5.625 6.1875 6.8842 6.1875 8.4375C6.1875 9.9908 7.4467 11.25 9 11.25Z" stroke="#1F1F1F" stroke-width="1.3" stroke-linecap="round" stroke-linejoin="round"/>
<path d="M4.48584 14.0182C4.90906 13.1846 5.55484 12.4845 6.35161 11.9954C7.14838 11.5063 8.06501 11.2475 8.9999 11.2475C9.93479 11.2475 10.8514 11.5063 11.6482 11.9954C12.445 12.4845 13.0907 13.1846 13.514 14.0182" stroke="#1F1F1F" stroke-width="1.3" stroke-linecap="round" stroke-linejoin="round"/>
<path d="M15.6565 7.875C15.8938 9.28501 15.6768 10.734 15.0369 12.0126C14.397 13.2913 13.3673 14.3335 12.0965 14.9888C10.8256 15.6441 9.37942 15.8785 7.96665 15.6582C6.55388 15.438 5.24767 14.7744 4.23662 13.7633C3.22557 12.7523 2.56201 11.4461 2.34174 10.0333C2.12148 8.62054 2.35591 7.17432 3.01119 5.90348C3.66647 4.63263 4.70868 3.60293 5.98735 2.96304C7.26601 2.32316 8.71496 2.10621 10.125 2.34351" stroke="#1F1F1F" stroke-width="1.3" stroke-linecap="round" stroke-linejoin="round"/>
<path d="M12.9375 3.9375L14.0625 5.0625L16.3125 2.8125" stroke="#1F1F1F" stroke-width="1.3" stroke-linecap="round" stroke-linejoin="round"/>
</g>
<defs>
<clipPath id="clip0_471_4989">
<rect width="18" height="18" fill="white"/>
</clipPath>
</defs>
</svg>
