<svg width="18" height="18" viewBox="0 0 18 18" fill="none" xmlns="http://www.w3.org/2000/svg">
<g clip-path="url(#clip0_471_4925)">
<path d="M7.3125 8.92545C6.86283 8.11169 6.67626 7.17863 6.77842 6.25452C6.88059 5.33042 7.26649 4.46064 7.88306 3.76476C8.49963 3.06888 9.31661 2.58107 10.2217 2.36837C11.1268 2.15567 12.0755 2.22853 12.9375 2.57694L10.125 5.62499L10.523 7.47702L12.375 7.87499L15.423 5.06249C15.7715 5.92447 15.8443 6.87321 15.6316 7.77829C15.4189 8.68337 14.9311 9.50035 14.2352 10.1169C13.5393 10.7335 12.6696 11.1194 11.7455 11.2216C10.8214 11.3237 9.88829 11.1372 9.07453 10.6875L5.13281 15.2578C4.81579 15.5748 4.38583 15.7529 3.9375 15.7529C3.48917 15.7529 3.0592 15.5748 2.74218 15.2578C2.42517 14.9408 2.24707 14.5108 2.24707 14.0625C2.24707 13.6142 2.42517 13.1842 2.74218 12.8672L7.3125 8.92545Z" stroke="#1F1F1F" stroke-width="1.3" stroke-linecap="round" stroke-linejoin="round"/>
</g>
<defs>
<clipPath id="clip0_471_4925">
<rect width="18" height="18" fill="white"/>
</clipPath>
</defs>
</svg>
