<svg width="25" height="30" viewBox="0 0 25 30" fill="none" xmlns="http://www.w3.org/2000/svg">
<g filter="url(#filter0_d_100_6012)">
<mask id="path-1-outside-1_100_6012" maskUnits="userSpaceOnUse" x="2.70435" y="1.52941" width="19" height="24" fill="black">
<rect fill="white" x="2.70435" y="1.52941" width="19" height="24"/>
<path fill-rule="evenodd" clip-rule="evenodd" d="M8.85728 15.2941L7.8973 13.7004C7.24182 12.6122 5.8456 12.2151 4.77762 12.8117L5.02647 12.6727C4.76143 12.8208 4.63434 13.1899 4.74346 13.4966L6.07229 17.2323C6.28295 17.8245 6.82096 18.662 7.26679 19.0827C7.26679 19.0827 9.94003 21.4869 9.94003 22.3883V23.5294H14.271L15.3538 21.1765L16.4365 23.5294H17.5193V22.3883C17.5193 21.4869 19.153 18.6479 19.153 18.6479C19.4537 18.096 19.7043 17.1238 19.7043 16.4783V11.7315C19.6848 10.6806 18.8626 9.82887 17.8481 9.82887C17.3406 9.82887 16.9295 10.2547 16.9295 10.7805V11.1607C16.9295 10.1097 16.1073 9.25801 15.0929 9.25801C14.5853 9.25801 14.1743 9.68387 14.1743 10.2096V10.5898C14.1743 9.53887 13.3521 8.68716 12.3376 8.68716C11.8301 8.68716 11.419 9.11302 11.419 9.63877V10.019C11.419 9.85007 11.4024 9.7158 11.3703 9.6094L11.0901 4.70731C11.0522 4.04442 10.538 3.52941 9.94003 3.52941C9.33787 3.52941 8.85728 4.05603 8.85728 4.70566V9.41176V15.2941ZM16.4561 14.1176H17.5389V18.8235H16.4561V14.1176ZM14.2906 14.1176H15.3734V18.8235H14.2906V14.1176ZM12.1251 14.1176H13.2079V18.8235H12.1251V14.1176Z"/>
</mask>
<path fill-rule="evenodd" clip-rule="evenodd" d="M8.85728 15.2941L7.8973 13.7004C7.24182 12.6122 5.8456 12.2151 4.77762 12.8117L5.02647 12.6727C4.76143 12.8208 4.63434 13.1899 4.74346 13.4966L6.07229 17.2323C6.28295 17.8245 6.82096 18.662 7.26679 19.0827C7.26679 19.0827 9.94003 21.4869 9.94003 22.3883V23.5294H14.271L15.3538 21.1765L16.4365 23.5294H17.5193V22.3883C17.5193 21.4869 19.153 18.6479 19.153 18.6479C19.4537 18.096 19.7043 17.1238 19.7043 16.4783V11.7315C19.6848 10.6806 18.8626 9.82887 17.8481 9.82887C17.3406 9.82887 16.9295 10.2547 16.9295 10.7805V11.1607C16.9295 10.1097 16.1073 9.25801 15.0929 9.25801C14.5853 9.25801 14.1743 9.68387 14.1743 10.2096V10.5898C14.1743 9.53887 13.3521 8.68716 12.3376 8.68716C11.8301 8.68716 11.419 9.11302 11.419 9.63877V10.019C11.419 9.85007 11.4024 9.7158 11.3703 9.6094L11.0901 4.70731C11.0522 4.04442 10.538 3.52941 9.94003 3.52941C9.33787 3.52941 8.85728 4.05603 8.85728 4.70566V9.41176V15.2941ZM16.4561 14.1176H17.5389V18.8235H16.4561V14.1176ZM14.2906 14.1176H15.3734V18.8235H14.2906V14.1176ZM12.1251 14.1176H13.2079V18.8235H12.1251V14.1176Z" fill="white"/>
<path d="M8.85728 15.2941L7.84951 15.9011L10.0337 19.5274V15.2941H8.85728ZM7.8973 13.7004L8.90507 13.0934V13.0934L7.8973 13.7004ZM4.74346 13.4966L3.63503 13.8909V13.8909L4.74346 13.4966ZM6.07229 17.2323L7.18072 16.838V16.838L6.07229 17.2323ZM7.26679 19.0827L6.45933 19.9383L6.46959 19.948L6.48009 19.9575L7.26679 19.0827ZM9.94003 23.5294H8.76356V24.7059H9.94003V23.5294ZM14.271 23.5294V24.7059H15.0247L15.3398 24.0212L14.271 23.5294ZM15.3538 21.1765L16.4225 20.6847L15.3538 18.3622L14.285 20.6847L15.3538 21.1765ZM16.4365 23.5294L15.3678 24.0212L15.6828 24.7059H16.4365V23.5294ZM17.5193 23.5294V24.7059H18.6957V23.5294H17.5193ZM19.153 18.6479L20.1727 19.2346L20.1795 19.2228L20.186 19.2108L19.153 18.6479ZM19.7043 11.7315H20.8808V11.7206L20.8806 11.7096L19.7043 11.7315ZM11.3703 9.6094L10.1957 9.67654L10.2037 9.81572L10.244 9.94919L11.3703 9.6094ZM11.0901 4.70731L9.91555 4.77444V4.77444L11.0901 4.70731ZM8.85728 4.70566H7.68081H8.85728ZM17.5389 14.1176H18.7153V12.9412H17.5389L17.5389 14.1176ZM17.5389 18.8235V20H18.7153V18.8235H17.5389ZM16.4561 18.8235H15.2797V20H16.4561V18.8235ZM16.4561 14.1176M15.3734 14.1176H16.5499V12.9412H15.3734L15.3734 14.1176ZM15.3734 18.8235V20H16.5499V18.8235H15.3734ZM14.2906 18.8235H13.1142V20H14.2906V18.8235ZM14.2906 14.1176M13.2079 14.1176H14.3844V12.9412H13.2079V14.1176ZM13.2079 18.8235V20H14.3844V18.8235H13.2079ZM12.1251 18.8235H10.9487V20H12.1251V18.8235ZM12.1251 14.1176M8.85728 15.2941L9.86505 14.6871L8.90507 13.0934L7.8973 13.7004L6.88953 14.3074L7.84951 15.9011L8.85728 15.2941ZM7.8973 13.7004L8.90507 13.0934C7.94224 11.4949 5.85954 10.8598 4.20389 11.7846L4.77762 12.8117L5.35135 13.8388C5.83166 13.5705 6.5414 13.7295 6.88953 14.3074L7.8973 13.7004ZM4.77762 12.8117L5.35135 13.8388L5.6002 13.6998L5.02647 12.6727L4.45274 11.6456L4.20389 11.7846L4.77762 12.8117ZM5.02647 12.6727L4.45274 11.6456C3.63598 12.1019 3.35364 13.0999 3.63503 13.8909L4.74346 13.4966L5.85189 13.1024C5.89436 13.2217 5.88473 13.3276 5.85723 13.4076C5.8305 13.4853 5.76079 13.6101 5.6002 13.6998L5.02647 12.6727ZM4.74346 13.4966L3.63503 13.8909L4.96386 17.6265L6.07229 17.2323L7.18072 16.838L5.85189 13.1024L4.74346 13.4966ZM6.07229 17.2323L4.96386 17.6265C5.23389 18.3857 5.87167 19.3838 6.45933 19.9383L7.26679 19.0827L8.07425 18.2271C7.77026 17.9402 7.332 17.2632 7.18072 16.838L6.07229 17.2323ZM7.26679 19.0827C6.48009 19.9575 6.48002 19.9574 6.47996 19.9574C6.47995 19.9574 6.4799 19.9573 6.47989 19.9573C6.47987 19.9573 6.47988 19.9573 6.47993 19.9573C6.48004 19.9574 6.48031 19.9577 6.48073 19.9581C6.48158 19.9588 6.48306 19.9602 6.48514 19.962C6.4893 19.9658 6.49588 19.9718 6.50472 19.9798C6.52241 19.9959 6.5491 20.0203 6.58351 20.0521C6.6524 20.1157 6.75189 20.2085 6.87171 20.323C7.1125 20.5531 7.4301 20.8657 7.74465 21.2016C8.0639 21.5425 8.35746 21.8837 8.56382 22.1737C8.66737 22.3192 8.73118 22.4271 8.76491 22.4973C8.80856 22.5881 8.76356 22.5355 8.76356 22.3883H9.94003H11.1165C11.1165 22.0157 10.988 21.6908 10.8854 21.4776C10.773 21.2437 10.6279 21.016 10.4808 20.8094C10.186 20.395 9.81123 19.9661 9.46217 19.5934C9.10841 19.2156 8.7577 18.8707 8.49725 18.6219C8.36646 18.4969 8.25711 18.3949 8.1798 18.3235C8.14111 18.2877 8.11038 18.2596 8.0889 18.2401C8.07816 18.2303 8.06973 18.2227 8.06378 18.2173C8.0608 18.2146 8.05844 18.2124 8.05672 18.2109C8.05586 18.2101 8.05516 18.2095 8.05462 18.209C8.05435 18.2087 8.05412 18.2085 8.05393 18.2084C8.05384 18.2083 8.05373 18.2082 8.05368 18.2081C8.05358 18.2081 8.05349 18.208 7.26679 19.0827ZM9.94003 22.3883H8.76356V23.5294H9.94003H11.1165V22.3883H9.94003ZM9.94003 23.5294V24.7059H14.271V23.5294V22.3529H9.94003V23.5294ZM14.271 23.5294L15.3398 24.0212L16.4225 21.6683L15.3538 21.1765L14.285 20.6847L13.2023 23.0376L14.271 23.5294ZM15.3538 21.1765L14.285 21.6683L15.3678 24.0212L16.4365 23.5294L17.5053 23.0376L16.4225 20.6847L15.3538 21.1765ZM16.4365 23.5294V24.7059H17.5193V23.5294V22.3529H16.4365V23.5294ZM17.5193 23.5294H18.6957V22.3883H17.5193H16.3428V23.5294H17.5193ZM17.5193 22.3883H18.6957C18.6957 22.4097 18.7142 22.2522 18.8707 21.8508C19.0057 21.5044 19.1928 21.1001 19.3898 20.7033C19.5851 20.31 19.7817 19.9413 19.93 19.6697C20.004 19.5344 20.0654 19.4243 20.1081 19.3485C20.1294 19.3107 20.1459 19.2815 20.157 19.2621C20.1625 19.2524 20.1666 19.2452 20.1693 19.2405C20.1706 19.2382 20.1715 19.2366 20.1721 19.2356C20.1724 19.2351 20.1726 19.2348 20.1727 19.2346C20.1727 19.2345 20.1727 19.2345 20.1727 19.2345C20.1727 19.2345 20.1727 19.2345 20.1727 19.2345C20.1727 19.2346 20.1727 19.2346 19.153 18.6479C18.1333 18.0611 18.1332 18.0612 18.1332 18.0612C18.1331 18.0613 18.1331 18.0614 18.133 18.0615C18.1329 18.0617 18.1328 18.0619 18.1326 18.0621C18.1323 18.0627 18.1319 18.0634 18.1314 18.0642C18.1304 18.066 18.129 18.0684 18.1273 18.0715C18.1237 18.0777 18.1187 18.0865 18.1123 18.0978C18.0994 18.1205 18.0808 18.1531 18.0575 18.1947C18.0107 18.2777 17.9445 18.3964 17.8653 18.5413C17.7074 18.8303 17.4955 19.2276 17.2824 19.6568C17.071 20.0824 16.8496 20.5569 16.6784 20.9963C16.5285 21.3807 16.3428 21.9161 16.3428 22.3883H17.5193ZM19.153 18.6479L20.186 19.2108C20.5805 18.4869 20.8808 17.3213 20.8808 16.4783H19.7043H18.5279C18.5279 16.9263 18.3269 17.7051 18.1199 18.0849L19.153 18.6479ZM19.7043 16.4783H20.8808V11.7315H19.7043H18.5279V16.4783H19.7043ZM19.7043 11.7315L20.8806 11.7096C20.85 10.0694 19.5544 8.6524 17.8481 8.6524V9.82887V11.0053C18.1708 11.0053 18.5195 11.2918 18.5281 11.7535L19.7043 11.7315ZM17.8481 9.82887V8.6524C16.652 8.6524 15.753 9.64448 15.753 10.7805H16.9295H18.106C18.106 10.865 18.0291 11.0053 17.8481 11.0053V9.82887ZM16.9295 10.7805H15.753V11.1607H16.9295H18.106V10.7805H16.9295ZM16.9295 11.1607H18.106C18.106 9.49949 16.7959 8.08154 15.0929 8.08154V9.25801V10.4345C15.4188 10.4345 15.753 10.72 15.753 11.1607H16.9295ZM15.0929 9.25801V8.08154C13.8968 8.08154 12.9978 9.07363 12.9978 10.2096H14.1743H15.3507C15.3507 10.2941 15.2739 10.4345 15.0929 10.4345V9.25801ZM14.1743 10.2096H12.9978V10.5898H14.1743H15.3507V10.2096H14.1743ZM14.1743 10.5898H15.3507C15.3507 8.92863 14.0406 7.51069 12.3376 7.51069V8.68716V9.86363C12.6635 9.86363 12.9978 10.1491 12.9978 10.5898H14.1743ZM12.3376 8.68716V7.51069C11.1415 7.51069 10.2425 8.50277 10.2425 9.63877H11.419H12.5955C12.5955 9.72326 12.5186 9.86363 12.3376 9.86363V8.68716ZM11.419 9.63877H10.2425V10.019H11.419H12.5955V9.63877H11.419ZM11.419 10.019H12.5955C12.5955 9.78158 12.5732 9.52338 12.4966 9.26961L11.3703 9.6094L10.244 9.94919C10.237 9.92599 10.237 9.91791 10.2386 9.93106C10.2402 9.94409 10.2425 9.97213 10.2425 10.019H11.419ZM11.3703 9.6094L12.5448 9.54227L12.2647 4.64018L11.0901 4.70731L9.91555 4.77444L10.1957 9.67654L11.3703 9.6094ZM11.0901 4.70731L12.2647 4.64018C12.1958 3.43606 11.2401 2.35294 9.94003 2.35294V3.52941V4.70588C9.91891 4.70588 9.90187 4.70106 9.89172 4.69658C9.88251 4.69251 9.8818 4.69013 9.88614 4.69454C9.89552 4.70408 9.913 4.72985 9.91555 4.77444L11.0901 4.70731ZM9.94003 3.52941V2.35294C8.59547 2.35294 7.68081 3.50299 7.68081 4.70566H8.85728H10.0337C10.0337 4.67199 10.0457 4.66279 10.0395 4.66955C10.0361 4.67328 10.0262 4.6825 10.0074 4.69115C9.98736 4.70034 9.96332 4.70588 9.94003 4.70588V3.52941ZM8.85728 4.70566H7.68081V9.41176H8.85728H10.0337V4.70566H8.85728ZM8.85728 9.41176H7.68081V15.2941H8.85728H10.0337V9.41176H8.85728ZM16.4561 14.1176V15.2941H17.5389V14.1176L17.5389 12.9412H16.4561V14.1176ZM17.5389 14.1176H16.3624V18.8235H17.5389H18.7153V14.1176H17.5389ZM17.5389 18.8235V17.6471H16.4561V18.8235V20H17.5389V18.8235ZM16.4561 18.8235H17.6326V14.1176H16.4561H15.2797V18.8235H16.4561ZM16.4561 14.1176M14.2906 14.1176V15.2941H15.3734V14.1176L15.3734 12.9412H14.2906V14.1176ZM15.3734 14.1176H14.1969V18.8235H15.3734H16.5499V14.1176H15.3734ZM15.3734 18.8235V17.6471H14.2906V18.8235V20H15.3734V18.8235ZM14.2906 18.8235H15.4671V14.1176H14.2906H13.1142V18.8235H14.2906ZM14.2906 14.1176M12.1251 14.1176V15.2941H13.2079V14.1176V12.9412H12.1251V14.1176ZM13.2079 14.1176H12.0314V18.8235H13.2079H14.3844V14.1176H13.2079ZM13.2079 18.8235V17.6471H12.1251V18.8235V20H13.2079V18.8235ZM12.1251 18.8235H13.3016V14.1176H12.1251H10.9487V18.8235H12.1251ZM12.1251 14.1176" fill="#1F1F1F" fill-opacity="0.8" mask="url(#path-1-outside-1_100_6012)"/>
</g>
<defs>
<filter id="filter0_d_100_6012" x="-0.000114918" y="2.26498e-06" width="24.4104" height="29.4118" filterUnits="userSpaceOnUse" color-interpolation-filters="sRGB">
<feFlood flood-opacity="0" result="BackgroundImageFix"/>
<feColorMatrix in="SourceAlpha" type="matrix" values="0 0 0 0 0 0 0 0 0 0 0 0 0 0 0 0 0 0 127 0" result="hardAlpha"/>
<feOffset dy="1.17647"/>
<feGaussianBlur stdDeviation="1.76471"/>
<feColorMatrix type="matrix" values="0 0 0 0 0 0 0 0 0 0 0 0 0 0 0 0 0 0 0.2 0"/>
<feBlend mode="normal" in2="BackgroundImageFix" result="effect1_dropShadow_100_6012"/>
<feBlend mode="normal" in="SourceGraphic" in2="effect1_dropShadow_100_6012" result="shape"/>
</filter>
</defs>
</svg>
