<svg width="113" height="40" viewBox="0 0 113 40" fill="none" xmlns="http://www.w3.org/2000/svg">
<rect width="113" height="40" rx="8" fill="#2093A3" fill-opacity="0.08"/>
<rect x="0.5" y="0.5" width="112" height="39" rx="7.5" stroke="#2093A3" stroke-opacity="0.08"/>
<g clip-path="url(#clip0_186_7169)">
<path d="M18 22C19.1046 22 20 21.1046 20 20C20 18.8954 19.1046 18 18 18C16.8954 18 16 18.8954 16 20C16 21.1046 16.8954 22 18 22Z" fill="#2093A3"/>
</g>
<path d="M32.154 25.5L35.892 15.07H37.516L41.254 25.5H39.784L38.93 23.05H34.478L33.624 25.5H32.154ZM34.912 21.79H38.496L36.508 16.064H36.9L34.912 21.79ZM45.6408 25.668C44.9035 25.668 44.2455 25.4953 43.6668 25.15C43.0975 24.8047 42.6495 24.3333 42.3228 23.736C41.9961 23.1387 41.8328 22.4667 41.8328 21.72C41.8328 20.964 41.9961 20.292 42.3228 19.704C42.6495 19.116 43.0975 18.6493 43.6668 18.304C44.2455 17.9587 44.9035 17.786 45.6408 17.786C46.1355 17.786 46.5975 17.8747 47.0268 18.052C47.4561 18.2293 47.8341 18.4673 48.1608 18.766C48.4875 19.0647 48.7255 19.4147 48.8748 19.816L47.7128 20.376C47.5355 19.984 47.2648 19.6667 46.9008 19.424C46.5368 19.172 46.1168 19.046 45.6408 19.046C45.1835 19.046 44.7681 19.1627 44.3948 19.396C44.0308 19.6293 43.7415 19.9467 43.5268 20.348C43.3121 20.7493 43.2048 21.2113 43.2048 21.734C43.2048 22.238 43.3121 22.6953 43.5268 23.106C43.7415 23.5073 44.0308 23.8247 44.3948 24.058C44.7681 24.2913 45.1835 24.408 45.6408 24.408C46.1168 24.408 46.5368 24.2867 46.9008 24.044C47.2648 23.792 47.5355 23.4607 47.7128 23.05L48.8748 23.638C48.7255 24.03 48.4875 24.38 48.1608 24.688C47.8341 24.9867 47.4561 25.2247 47.0268 25.402C46.5975 25.5793 46.1355 25.668 45.6408 25.668ZM53.6424 25.584C52.905 25.584 52.3357 25.374 51.9344 24.954C51.5424 24.534 51.3464 23.9413 51.3464 23.176V19.2H49.9744V17.954H50.2544C50.5904 17.954 50.8564 17.8513 51.0524 17.646C51.2484 17.4407 51.3464 17.17 51.3464 16.834V16.218H52.6484V17.954H54.3424V19.2H52.6484V23.134C52.6484 23.386 52.6857 23.6053 52.7604 23.792C52.8444 23.9787 52.9797 24.128 53.1664 24.24C53.353 24.3427 53.6004 24.394 53.9084 24.394C53.9737 24.394 54.053 24.3893 54.1464 24.38C54.249 24.3707 54.3424 24.3613 54.4264 24.352V25.5C54.305 25.528 54.1697 25.5467 54.0204 25.556C53.871 25.5747 53.745 25.584 53.6424 25.584ZM56.1271 25.5V17.954H57.4291V25.5H56.1271ZM56.1271 16.75V15.07H57.4291V16.75H56.1271ZM61.5494 25.5L58.5954 17.954H60.0514L62.4174 24.338H61.9134L64.2934 17.954H65.7494L62.7814 25.5H61.5494ZM70.2495 25.668C69.5215 25.668 68.8729 25.4953 68.3035 25.15C67.7342 24.8047 67.2862 24.3333 66.9595 23.736C66.6329 23.1293 66.4695 22.4527 66.4695 21.706C66.4695 20.95 66.6282 20.278 66.9455 19.69C67.2722 19.102 67.7109 18.64 68.2615 18.304C68.8215 17.9587 69.4469 17.786 70.1375 17.786C70.6975 17.786 71.1922 17.8887 71.6215 18.094C72.0602 18.29 72.4289 18.5607 72.7275 18.906C73.0355 19.242 73.2689 19.6293 73.4275 20.068C73.5955 20.4973 73.6795 20.9453 73.6795 21.412C73.6795 21.5147 73.6702 21.6313 73.6515 21.762C73.6422 21.8833 73.6282 22 73.6095 22.112H67.4215V20.992H72.8535L72.2375 21.496C72.3215 21.0107 72.2749 20.5767 72.0975 20.194C71.9202 19.8113 71.6589 19.508 71.3135 19.284C70.9682 19.06 70.5762 18.948 70.1375 18.948C69.6989 18.948 69.2975 19.06 68.9335 19.284C68.5695 19.508 68.2849 19.83 68.0795 20.25C67.8835 20.6607 67.8042 21.1507 67.8415 21.72C67.8042 22.2707 67.8882 22.756 68.0935 23.176C68.3082 23.5867 68.6069 23.9087 68.9895 24.142C69.3815 24.366 69.8062 24.478 70.2635 24.478C70.7675 24.478 71.1922 24.3613 71.5375 24.128C71.8829 23.8947 72.1629 23.596 72.3775 23.232L73.4695 23.792C73.3202 24.1373 73.0869 24.4547 72.7695 24.744C72.4615 25.024 72.0929 25.248 71.6635 25.416C71.2435 25.584 70.7722 25.668 70.2495 25.668Z" fill="#2093A3"/>
<g clip-path="url(#clip1_186_7169)">
<path d="M97.625 17.75L92 23.375L86.375 17.75" stroke="#2093A3" stroke-width="1.5" stroke-linecap="round" stroke-linejoin="round"/>
</g>
<defs>
<clipPath id="clip0_186_7169">
<rect width="12" height="12" fill="white" transform="translate(12 14)"/>
</clipPath>
<clipPath id="clip1_186_7169">
<rect width="18" height="18" fill="white" transform="translate(83 11)"/>
</clipPath>
</defs>
</svg>
