<svg width="704" height="95" viewBox="0 0 704 95" fill="none" xmlns="http://www.w3.org/2000/svg">
<g clip-path="url(#clip0_169_8134)">
<path d="M103.406 33.9063C102.702 34.6108 101.746 35.0065 100.75 35.0065C99.7536 35.0065 98.7981 34.6108 98.0937 33.9063C97.3892 33.2018 96.9934 32.2463 96.9934 31.25C96.9934 30.2537 97.3892 29.2983 98.0937 28.5938L108.058 19.4875C107.144 17.6704 106.805 15.6177 107.088 13.6033C107.371 11.5889 108.261 9.70857 109.64 8.21331C111.019 6.71806 112.822 5.67895 114.807 5.23463C116.792 4.79032 118.865 4.96194 120.75 5.72659L114.5 12.5L115.384 16.6157L119.5 17.5L126.273 11.25C127.037 13.1353 127.208 15.2087 126.763 17.1937C126.318 19.1786 125.279 20.9807 123.783 22.3593C122.287 23.738 120.406 24.6276 118.392 24.9096C116.377 25.1916 114.325 24.8525 112.508 23.9375L103.406 33.9063Z" stroke="#FF6A33" stroke-width="3" stroke-linecap="round" stroke-linejoin="round"/>
</g>
<path d="M32.4124 68V54.59H41.2504V56.48H34.5364V60.332H40.8904V62.222H34.5364V66.11H41.2504V68H32.4124ZM42.0529 68L45.4549 63.122L42.0529 58.262H44.4469L47.2369 62.33H46.0849L48.8749 58.262H51.2689L47.8489 63.122L51.2509 68H48.8569L46.1029 63.914H47.2189L44.4469 68H42.0529ZM52.6577 71.6V58.262H54.6017V60.278L54.3677 59.81C54.7277 59.258 55.2077 58.826 55.8077 58.514C56.4077 58.202 57.0917 58.046 57.8597 58.046C58.7837 58.046 59.6117 58.268 60.3437 58.712C61.0877 59.156 61.6697 59.762 62.0897 60.53C62.5217 61.298 62.7377 62.162 62.7377 63.122C62.7377 64.082 62.5217 64.946 62.0897 65.714C61.6697 66.482 61.0937 67.094 60.3617 67.55C59.6297 67.994 58.7957 68.216 57.8597 68.216C57.1037 68.216 56.4137 68.06 55.7897 67.748C55.1777 67.436 54.7037 66.986 54.3677 66.398L54.6917 66.02V71.6H52.6577ZM57.6617 66.326C58.2377 66.326 58.7477 66.188 59.1917 65.912C59.6357 65.636 59.9837 65.258 60.2357 64.778C60.4997 64.286 60.6317 63.734 60.6317 63.122C60.6317 62.51 60.4997 61.964 60.2357 61.484C59.9837 61.004 59.6357 60.626 59.1917 60.35C58.7477 60.074 58.2377 59.936 57.6617 59.936C57.0977 59.936 56.5877 60.074 56.1317 60.35C55.6877 60.626 55.3337 61.004 55.0697 61.484C54.8177 61.964 54.6917 62.51 54.6917 63.122C54.6917 63.734 54.8177 64.286 55.0697 64.778C55.3337 65.258 55.6877 65.636 56.1317 65.912C56.5877 66.188 57.0977 66.326 57.6617 66.326ZM69.2883 68.216C68.3163 68.216 67.4523 67.994 66.6963 67.55C65.9523 67.094 65.3703 66.482 64.9503 65.714C64.5303 64.934 64.3203 64.064 64.3203 63.104C64.3203 62.12 64.5303 61.25 64.9503 60.494C65.3823 59.738 65.9583 59.144 66.6783 58.712C67.3983 58.268 68.2143 58.046 69.1263 58.046C69.8583 58.046 70.5123 58.172 71.0883 58.424C71.6643 58.676 72.1503 59.024 72.5463 59.468C72.9423 59.9 73.2423 60.398 73.4463 60.962C73.6623 61.526 73.7703 62.126 73.7703 62.762C73.7703 62.918 73.7643 63.08 73.7523 63.248C73.7403 63.416 73.7163 63.572 73.6803 63.716H65.9223V62.096H72.5283L71.5563 62.834C71.6763 62.246 71.6343 61.724 71.4303 61.268C71.2383 60.8 70.9383 60.434 70.5303 60.17C70.1343 59.894 69.6663 59.756 69.1263 59.756C68.5863 59.756 68.1063 59.894 67.6863 60.17C67.2663 60.434 66.9423 60.818 66.7143 61.322C66.4863 61.814 66.3963 62.414 66.4443 63.122C66.3843 63.782 66.4743 64.358 66.7143 64.85C66.9663 65.342 67.3143 65.726 67.7583 66.002C68.2143 66.278 68.7303 66.416 69.3063 66.416C69.8943 66.416 70.3923 66.284 70.8003 66.02C71.2203 65.756 71.5503 65.414 71.7903 64.994L73.4463 65.804C73.2543 66.26 72.9543 66.674 72.5463 67.046C72.1503 67.406 71.6703 67.694 71.1063 67.91C70.5543 68.114 69.9483 68.216 69.2883 68.216ZM75.7554 68V58.262H77.6994V60.224L77.5194 59.936C77.7354 59.3 78.0834 58.844 78.5634 58.568C79.0434 58.28 79.6194 58.136 80.2914 58.136H80.8854V59.99H80.0394C79.3674 59.99 78.8214 60.2 78.4014 60.62C77.9934 61.028 77.7894 61.616 77.7894 62.384V68H75.7554ZM86.6646 68.108C85.6446 68.108 84.8526 67.82 84.2886 67.244C83.7246 66.668 83.4426 65.858 83.4426 64.814V60.098H81.7326V58.262H82.0026C82.4586 58.262 82.8126 58.13 83.0646 57.866C83.3166 57.602 83.4426 57.242 83.4426 56.786V56.03H85.4766V58.262H87.6906V60.098H85.4766V64.724C85.4766 65.06 85.5306 65.348 85.6386 65.588C85.7466 65.816 85.9206 65.996 86.1606 66.128C86.4006 66.248 86.7126 66.308 87.0966 66.308C87.1926 66.308 87.3006 66.302 87.4206 66.29C87.5406 66.278 87.6546 66.266 87.7626 66.254V68C87.5946 68.024 87.4086 68.048 87.2046 68.072C87.0006 68.096 86.8206 68.108 86.6646 68.108ZM95.4681 68V56.48H91.9041V54.59H101.084V56.48H97.5741V68H95.4681ZM105.781 68.216C104.809 68.216 103.945 67.994 103.189 67.55C102.445 67.094 101.863 66.482 101.443 65.714C101.023 64.934 100.813 64.064 100.813 63.104C100.813 62.12 101.023 61.25 101.443 60.494C101.875 59.738 102.451 59.144 103.171 58.712C103.891 58.268 104.707 58.046 105.619 58.046C106.351 58.046 107.005 58.172 107.581 58.424C108.157 58.676 108.643 59.024 109.039 59.468C109.435 59.9 109.735 60.398 109.939 60.962C110.155 61.526 110.263 62.126 110.263 62.762C110.263 62.918 110.257 63.08 110.245 63.248C110.233 63.416 110.209 63.572 110.173 63.716H102.415V62.096H109.021L108.049 62.834C108.169 62.246 108.127 61.724 107.923 61.268C107.731 60.8 107.431 60.434 107.023 60.17C106.627 59.894 106.159 59.756 105.619 59.756C105.079 59.756 104.599 59.894 104.179 60.17C103.759 60.434 103.435 60.818 103.207 61.322C102.979 61.814 102.889 62.414 102.937 63.122C102.877 63.782 102.967 64.358 103.207 64.85C103.459 65.342 103.807 65.726 104.251 66.002C104.707 66.278 105.223 66.416 105.799 66.416C106.387 66.416 106.885 66.284 107.293 66.02C107.713 65.756 108.043 65.414 108.283 64.994L109.939 65.804C109.747 66.26 109.447 66.674 109.039 67.046C108.643 67.406 108.163 67.694 107.599 67.91C107.047 68.114 106.441 68.216 105.781 68.216ZM116.874 68.216C115.902 68.216 115.038 67.994 114.282 67.55C113.538 67.094 112.944 66.482 112.5 65.714C112.068 64.946 111.852 64.076 111.852 63.104C111.852 62.144 112.068 61.28 112.5 60.512C112.932 59.744 113.526 59.144 114.282 58.712C115.038 58.268 115.902 58.046 116.874 58.046C117.534 58.046 118.152 58.166 118.728 58.406C119.304 58.634 119.802 58.952 120.222 59.36C120.654 59.768 120.972 60.242 121.176 60.782L119.394 61.61C119.19 61.106 118.86 60.704 118.404 60.404C117.96 60.092 117.45 59.936 116.874 59.936C116.322 59.936 115.824 60.074 115.38 60.35C114.948 60.614 114.606 60.992 114.354 61.484C114.102 61.964 113.976 62.51 113.976 63.122C113.976 63.734 114.102 64.286 114.354 64.778C114.606 65.258 114.948 65.636 115.38 65.912C115.824 66.188 116.322 66.326 116.874 66.326C117.462 66.326 117.972 66.176 118.404 65.876C118.848 65.564 119.178 65.15 119.394 64.634L121.176 65.48C120.984 65.996 120.672 66.464 120.24 66.884C119.82 67.292 119.322 67.616 118.746 67.856C118.17 68.096 117.546 68.216 116.874 68.216ZM123.164 68V54.374H125.198V60.17L124.874 59.918C125.114 59.306 125.498 58.844 126.026 58.532C126.554 58.208 127.166 58.046 127.862 58.046C128.582 58.046 129.218 58.202 129.77 58.514C130.322 58.826 130.754 59.258 131.066 59.81C131.378 60.362 131.534 60.992 131.534 61.7V68H129.518V62.258C129.518 61.766 129.422 61.352 129.23 61.016C129.05 60.668 128.798 60.404 128.474 60.224C128.15 60.032 127.778 59.936 127.358 59.936C126.95 59.936 126.578 60.032 126.242 60.224C125.918 60.404 125.66 60.668 125.468 61.016C125.288 61.364 125.198 61.778 125.198 62.258V68H123.164ZM133.71 68V58.262H135.654V60.17L135.42 59.918C135.66 59.306 136.044 58.844 136.572 58.532C137.1 58.208 137.712 58.046 138.408 58.046C139.128 58.046 139.764 58.202 140.316 58.514C140.868 58.826 141.3 59.258 141.612 59.81C141.924 60.362 142.08 60.998 142.08 61.718V68H140.064V62.258C140.064 61.766 139.974 61.352 139.794 61.016C139.614 60.668 139.356 60.404 139.02 60.224C138.696 60.032 138.324 59.936 137.904 59.936C137.484 59.936 137.106 60.032 136.77 60.224C136.446 60.404 136.194 60.668 136.014 61.016C135.834 61.364 135.744 61.778 135.744 62.258V68H133.71ZM144.257 68V58.262H146.291V68H144.257ZM144.257 56.93V54.59H146.291V56.93H144.257ZM153.295 68.216C152.323 68.216 151.459 67.994 150.703 67.55C149.959 67.094 149.365 66.482 148.921 65.714C148.489 64.946 148.273 64.076 148.273 63.104C148.273 62.144 148.489 61.28 148.921 60.512C149.353 59.744 149.947 59.144 150.703 58.712C151.459 58.268 152.323 58.046 153.295 58.046C153.955 58.046 154.573 58.166 155.149 58.406C155.725 58.634 156.223 58.952 156.643 59.36C157.075 59.768 157.393 60.242 157.597 60.782L155.815 61.61C155.611 61.106 155.281 60.704 154.825 60.404C154.381 60.092 153.871 59.936 153.295 59.936C152.743 59.936 152.245 60.074 151.801 60.35C151.369 60.614 151.027 60.992 150.775 61.484C150.523 61.964 150.397 62.51 150.397 63.122C150.397 63.734 150.523 64.286 150.775 64.778C151.027 65.258 151.369 65.636 151.801 65.912C152.245 66.188 152.743 66.326 153.295 66.326C153.883 66.326 154.393 66.176 154.825 65.876C155.269 65.564 155.599 65.15 155.815 64.634L157.597 65.48C157.405 65.996 157.093 66.464 156.661 66.884C156.241 67.292 155.743 67.616 155.167 67.856C154.591 68.096 153.967 68.216 153.295 68.216ZM159.585 68V58.262H161.619V68H159.585ZM159.585 56.93V54.59H161.619V56.93H159.585ZM166.914 68.216C166.254 68.216 165.672 68.102 165.168 67.874C164.676 67.634 164.292 67.31 164.016 66.902C163.74 66.482 163.602 65.99 163.602 65.426C163.602 64.898 163.716 64.424 163.944 64.004C164.184 63.584 164.55 63.23 165.042 62.942C165.534 62.654 166.152 62.45 166.896 62.33L170.28 61.772V63.374L167.292 63.896C166.752 63.992 166.356 64.166 166.104 64.418C165.852 64.658 165.726 64.97 165.726 65.354C165.726 65.726 165.864 66.032 166.14 66.272C166.428 66.5 166.794 66.614 167.238 66.614C167.79 66.614 168.27 66.494 168.678 66.254C169.098 66.014 169.422 65.696 169.65 65.3C169.878 64.892 169.992 64.442 169.992 63.95V61.448C169.992 60.968 169.812 60.578 169.452 60.278C169.104 59.966 168.636 59.81 168.048 59.81C167.508 59.81 167.034 59.954 166.626 60.242C166.23 60.518 165.936 60.878 165.744 61.322L164.052 60.476C164.232 59.996 164.526 59.576 164.934 59.216C165.342 58.844 165.816 58.556 166.356 58.352C166.908 58.148 167.49 58.046 168.102 58.046C168.87 58.046 169.548 58.19 170.136 58.478C170.736 58.766 171.198 59.168 171.522 59.684C171.858 60.188 172.026 60.776 172.026 61.448V68H170.082V66.236L170.496 66.29C170.268 66.686 169.974 67.028 169.614 67.316C169.266 67.604 168.864 67.826 168.408 67.982C167.964 68.138 167.466 68.216 166.914 68.216ZM174.404 68V58.262H176.348V60.17L176.114 59.918C176.354 59.306 176.738 58.844 177.266 58.532C177.794 58.208 178.406 58.046 179.102 58.046C179.822 58.046 180.458 58.202 181.01 58.514C181.562 58.826 181.994 59.258 182.306 59.81C182.618 60.362 182.774 60.998 182.774 61.718V68H180.758V62.258C180.758 61.766 180.668 61.352 180.488 61.016C180.308 60.668 180.05 60.404 179.714 60.224C179.39 60.032 179.018 59.936 178.598 59.936C178.178 59.936 177.8 60.032 177.464 60.224C177.14 60.404 176.888 60.668 176.708 61.016C176.528 61.364 176.438 61.778 176.438 62.258V68H174.404ZM188.551 68.216C187.555 68.216 186.679 67.97 185.923 67.478C185.179 66.986 184.657 66.326 184.357 65.498L185.923 64.76C186.187 65.312 186.547 65.75 187.003 66.074C187.471 66.398 187.987 66.56 188.551 66.56C189.031 66.56 189.421 66.452 189.721 66.236C190.021 66.02 190.171 65.726 190.171 65.354C190.171 65.114 190.105 64.922 189.973 64.778C189.841 64.622 189.673 64.496 189.469 64.4C189.277 64.304 189.079 64.232 188.875 64.184L187.345 63.752C186.505 63.512 185.875 63.152 185.455 62.672C185.047 62.18 184.843 61.61 184.843 60.962C184.843 60.374 184.993 59.864 185.293 59.432C185.593 58.988 186.007 58.646 186.535 58.406C187.063 58.166 187.657 58.046 188.317 58.046C189.205 58.046 189.997 58.268 190.693 58.712C191.389 59.144 191.881 59.75 192.169 60.53L190.603 61.268C190.411 60.8 190.105 60.428 189.685 60.152C189.277 59.876 188.815 59.738 188.299 59.738C187.855 59.738 187.501 59.846 187.237 60.062C186.973 60.266 186.841 60.536 186.841 60.872C186.841 61.1 186.901 61.292 187.021 61.448C187.141 61.592 187.297 61.712 187.489 61.808C187.681 61.892 187.879 61.964 188.083 62.024L189.667 62.492C190.471 62.72 191.089 63.08 191.521 63.572C191.953 64.052 192.169 64.628 192.169 65.3C192.169 65.876 192.013 66.386 191.701 66.83C191.401 67.262 190.981 67.604 190.441 67.856C189.901 68.096 189.271 68.216 188.551 68.216Z" fill="#1F1F1F"/>
<path d="M66.1444 91V80.57H72.7524V81.83H67.5164V85.204H72.2624V86.464H67.5164V91H66.1444ZM76.6898 91.168C76.1485 91.168 75.6585 91.042 75.2198 90.79C74.7905 90.538 74.4545 90.188 74.2118 89.74C73.9785 89.2827 73.8618 88.76 73.8618 88.172V83.454H75.1638V88.032C75.1638 88.4053 75.2385 88.732 75.3878 89.012C75.5465 89.292 75.7611 89.5113 76.0318 89.67C76.3118 89.8287 76.6291 89.908 76.9838 89.908C77.3385 89.908 77.6511 89.8287 77.9218 89.67C78.2018 89.5113 78.4165 89.2827 78.5658 88.984C78.7245 88.6853 78.8038 88.3307 78.8038 87.92V83.454H80.1198V91H78.8458V89.53L79.0558 89.656C78.8785 90.132 78.5751 90.5053 78.1458 90.776C77.7258 91.0373 77.2405 91.168 76.6898 91.168ZM82.1369 91V80.402H83.4389V91H82.1369ZM85.4592 91V80.402H86.7612V91H85.4592ZM89.1874 94.08C89.0194 94.08 88.8514 94.066 88.6834 94.038C88.5154 94.01 88.3568 93.9633 88.2074 93.898V92.736C88.3101 92.7547 88.4361 92.7733 88.5854 92.792C88.7441 92.82 88.8981 92.834 89.0474 92.834C89.4861 92.834 89.8174 92.736 90.0414 92.54C90.2748 92.3533 90.4941 92.0267 90.6994 91.56L91.1754 90.426L91.1474 91.56L87.9274 83.454H89.3414L91.8474 89.894H91.4274L93.9194 83.454H95.3614L91.9594 91.896C91.8008 92.2973 91.5954 92.6613 91.3434 92.988C91.1008 93.324 90.8021 93.59 90.4474 93.786C90.0928 93.982 89.6728 94.08 89.1874 94.08ZM99.0936 91V80.57H100.466V89.74H105.044V91H99.0936ZM106.432 91V83.454H107.734V91H106.432ZM106.432 82.25V80.57H107.734V82.25H106.432ZM113.254 91.168C112.517 91.168 111.859 90.9953 111.28 90.65C110.711 90.3047 110.263 89.8333 109.936 89.236C109.609 88.6387 109.446 87.9667 109.446 87.22C109.446 86.464 109.609 85.792 109.936 85.204C110.263 84.616 110.711 84.1493 111.28 83.804C111.859 83.4587 112.517 83.286 113.254 83.286C113.749 83.286 114.211 83.3747 114.64 83.552C115.069 83.7293 115.447 83.9673 115.774 84.266C116.101 84.5647 116.339 84.9147 116.488 85.316L115.326 85.876C115.149 85.484 114.878 85.1667 114.514 84.924C114.15 84.672 113.73 84.546 113.254 84.546C112.797 84.546 112.381 84.6627 112.008 84.896C111.644 85.1293 111.355 85.4467 111.14 85.848C110.925 86.2493 110.818 86.7113 110.818 87.234C110.818 87.738 110.925 88.1953 111.14 88.606C111.355 89.0073 111.644 89.3247 112.008 89.558C112.381 89.7913 112.797 89.908 113.254 89.908C113.73 89.908 114.15 89.7867 114.514 89.544C114.878 89.292 115.149 88.9607 115.326 88.55L116.488 89.138C116.339 89.53 116.101 89.88 115.774 90.188C115.447 90.4867 115.069 90.7247 114.64 90.902C114.211 91.0793 113.749 91.168 113.254 91.168ZM121.662 91.168C120.934 91.168 120.285 90.9953 119.716 90.65C119.146 90.3047 118.698 89.8333 118.372 89.236C118.045 88.6293 117.882 87.9527 117.882 87.206C117.882 86.45 118.04 85.778 118.358 85.19C118.684 84.602 119.123 84.14 119.674 83.804C120.234 83.4587 120.859 83.286 121.55 83.286C122.11 83.286 122.604 83.3887 123.034 83.594C123.472 83.79 123.841 84.0607 124.14 84.406C124.448 84.742 124.681 85.1293 124.84 85.568C125.008 85.9973 125.092 86.4453 125.092 86.912C125.092 87.0147 125.082 87.1313 125.064 87.262C125.054 87.3833 125.04 87.5 125.022 87.612H118.834V86.492H124.266L123.65 86.996C123.734 86.5107 123.687 86.0767 123.51 85.694C123.332 85.3113 123.071 85.008 122.726 84.784C122.38 84.56 121.988 84.448 121.55 84.448C121.111 84.448 120.71 84.56 120.346 84.784C119.982 85.008 119.697 85.33 119.492 85.75C119.296 86.1607 119.216 86.6507 119.254 87.22C119.216 87.7707 119.3 88.256 119.506 88.676C119.72 89.0867 120.019 89.4087 120.402 89.642C120.794 89.866 121.218 89.978 121.676 89.978C122.18 89.978 122.604 89.8613 122.95 89.628C123.295 89.3947 123.575 89.096 123.79 88.732L124.882 89.292C124.732 89.6373 124.499 89.9547 124.182 90.244C123.874 90.524 123.505 90.748 123.076 90.916C122.656 91.084 122.184 91.168 121.662 91.168ZM126.789 91V83.454H128.063V84.924L127.853 84.798C128.04 84.322 128.339 83.9533 128.749 83.692C129.169 83.4213 129.659 83.286 130.219 83.286C130.761 83.286 131.241 83.4073 131.661 83.65C132.091 83.8927 132.427 84.2287 132.669 84.658C132.921 85.0873 133.047 85.5727 133.047 86.114V91H131.731V86.534C131.731 86.114 131.657 85.7593 131.507 85.47C131.358 85.1807 131.143 84.9567 130.863 84.798C130.593 84.63 130.28 84.546 129.925 84.546C129.571 84.546 129.253 84.63 128.973 84.798C128.703 84.9567 128.488 85.1853 128.329 85.484C128.171 85.7733 128.091 86.1233 128.091 86.534V91H126.789ZM137.612 91.168C136.856 91.168 136.198 90.9813 135.638 90.608C135.078 90.2347 134.682 89.7307 134.448 89.096L135.484 88.592C135.699 89.04 135.993 89.3947 136.366 89.656C136.74 89.9173 137.155 90.048 137.612 90.048C138.023 90.048 138.364 89.95 138.634 89.754C138.905 89.558 139.04 89.3013 139.04 88.984C139.04 88.76 138.975 88.5827 138.844 88.452C138.723 88.312 138.574 88.2047 138.396 88.13C138.219 88.046 138.056 87.9853 137.906 87.948L136.772 87.626C136.091 87.43 135.592 87.15 135.274 86.786C134.966 86.422 134.812 85.9973 134.812 85.512C134.812 85.064 134.924 84.6767 135.148 84.35C135.382 84.014 135.694 83.7527 136.086 83.566C136.488 83.3793 136.936 83.286 137.43 83.286C138.093 83.286 138.686 83.454 139.208 83.79C139.74 84.126 140.118 84.5973 140.342 85.204L139.278 85.694C139.11 85.302 138.858 84.994 138.522 84.77C138.186 84.5367 137.808 84.42 137.388 84.42C137.006 84.42 136.702 84.518 136.478 84.714C136.254 84.9007 136.142 85.1387 136.142 85.428C136.142 85.6427 136.198 85.82 136.31 85.96C136.422 86.0907 136.558 86.1933 136.716 86.268C136.875 86.3333 137.029 86.3893 137.178 86.436L138.41 86.8C139.026 86.9773 139.502 87.2527 139.838 87.626C140.184 87.9993 140.356 88.4473 140.356 88.97C140.356 89.39 140.24 89.768 140.006 90.104C139.773 90.44 139.451 90.7013 139.04 90.888C138.63 91.0747 138.154 91.168 137.612 91.168ZM145.533 91.168C144.805 91.168 144.156 90.9953 143.587 90.65C143.017 90.3047 142.569 89.8333 142.243 89.236C141.916 88.6293 141.753 87.9527 141.753 87.206C141.753 86.45 141.911 85.778 142.229 85.19C142.555 84.602 142.994 84.14 143.545 83.804C144.105 83.4587 144.73 83.286 145.421 83.286C145.981 83.286 146.475 83.3887 146.905 83.594C147.343 83.79 147.712 84.0607 148.011 84.406C148.319 84.742 148.552 85.1293 148.711 85.568C148.879 85.9973 148.963 86.4453 148.963 86.912C148.963 87.0147 148.953 87.1313 148.935 87.262C148.925 87.3833 148.911 87.5 148.893 87.612H142.705V86.492H148.137L147.521 86.996C147.605 86.5107 147.558 86.0767 147.381 85.694C147.203 85.3113 146.942 85.008 146.597 84.784C146.251 84.56 145.859 84.448 145.421 84.448C144.982 84.448 144.581 84.56 144.217 84.784C143.853 85.008 143.568 85.33 143.363 85.75C143.167 86.1607 143.087 86.6507 143.125 87.22C143.087 87.7707 143.171 88.256 143.377 88.676C143.591 89.0867 143.89 89.4087 144.273 89.642C144.665 89.866 145.089 89.978 145.547 89.978C146.051 89.978 146.475 89.8613 146.821 89.628C147.166 89.3947 147.446 89.096 147.661 88.732L148.753 89.292C148.603 89.6373 148.37 89.9547 148.053 90.244C147.745 90.524 147.376 90.748 146.947 90.916C146.527 91.084 146.055 91.168 145.533 91.168ZM154.09 91.168C153.381 91.168 152.742 90.9953 152.172 90.65C151.612 90.3047 151.169 89.8333 150.842 89.236C150.516 88.6387 150.352 87.9713 150.352 87.234C150.352 86.478 150.516 85.806 150.842 85.218C151.169 84.6207 151.612 84.1493 152.172 83.804C152.742 83.4587 153.381 83.286 154.09 83.286C154.716 83.286 155.271 83.4213 155.756 83.692C156.242 83.9533 156.624 84.308 156.904 84.756L156.694 85.078V80.402H158.01V91H156.736V89.39L156.904 89.614C156.643 90.1087 156.26 90.4913 155.756 90.762C155.262 91.0327 154.706 91.168 154.09 91.168ZM154.202 89.908C154.678 89.908 155.103 89.7913 155.476 89.558C155.85 89.3247 156.144 89.0073 156.358 88.606C156.582 88.1953 156.694 87.738 156.694 87.234C156.694 86.7207 156.582 86.2633 156.358 85.862C156.144 85.4513 155.85 85.1293 155.476 84.896C155.103 84.6627 154.678 84.546 154.202 84.546C153.736 84.546 153.311 84.6673 152.928 84.91C152.555 85.1433 152.261 85.4607 152.046 85.862C151.832 86.254 151.724 86.7113 151.724 87.234C151.724 87.738 151.832 88.1953 152.046 88.606C152.261 89.0073 152.555 89.3247 152.928 89.558C153.302 89.7913 153.726 89.908 154.202 89.908Z" fill="#1F1F1F" fill-opacity="0.64"/>
<g clip-path="url(#clip1_169_8134)">
<path d="M352 35C360.284 35 367 28.2843 367 20C367 11.7157 360.284 5 352 5C343.716 5 337 11.7157 337 20C337 28.2843 343.716 35 352 35Z" stroke="#FF6A33" stroke-width="3" stroke-linecap="round" stroke-linejoin="round"/>
<path d="M352 11.25V20H360.75" stroke="#FF6A33" stroke-width="3" stroke-linecap="round" stroke-linejoin="round"/>
</g>
<path d="M318.88 68V54.59H323.758C324.658 54.59 325.45 54.758 326.134 55.094C326.818 55.418 327.352 55.898 327.736 56.534C328.132 57.158 328.33 57.908 328.33 58.784C328.33 59.708 328.096 60.5 327.628 61.16C327.172 61.82 326.554 62.3 325.774 62.6L328.87 68H326.458L323.164 62.15L324.55 62.96H321.004V68H318.88ZM321.004 61.07H323.794C324.286 61.07 324.712 60.974 325.072 60.782C325.432 60.59 325.708 60.326 325.9 59.99C326.104 59.642 326.206 59.234 326.206 58.766C326.206 58.298 326.104 57.896 325.9 57.56C325.708 57.212 325.432 56.948 325.072 56.768C324.712 56.576 324.286 56.48 323.794 56.48H321.004V61.07ZM334.487 68.216C333.515 68.216 332.651 67.994 331.895 67.55C331.151 67.094 330.569 66.482 330.149 65.714C329.729 64.934 329.519 64.064 329.519 63.104C329.519 62.12 329.729 61.25 330.149 60.494C330.581 59.738 331.157 59.144 331.877 58.712C332.597 58.268 333.413 58.046 334.325 58.046C335.057 58.046 335.711 58.172 336.287 58.424C336.863 58.676 337.349 59.024 337.745 59.468C338.141 59.9 338.441 60.398 338.645 60.962C338.861 61.526 338.969 62.126 338.969 62.762C338.969 62.918 338.963 63.08 338.951 63.248C338.939 63.416 338.915 63.572 338.879 63.716H331.121V62.096H337.727L336.755 62.834C336.875 62.246 336.833 61.724 336.629 61.268C336.437 60.8 336.137 60.434 335.729 60.17C335.333 59.894 334.865 59.756 334.325 59.756C333.785 59.756 333.305 59.894 332.885 60.17C332.465 60.434 332.141 60.818 331.913 61.322C331.685 61.814 331.595 62.414 331.643 63.122C331.583 63.782 331.673 64.358 331.913 64.85C332.165 65.342 332.513 65.726 332.957 66.002C333.413 66.278 333.929 66.416 334.505 66.416C335.093 66.416 335.591 66.284 335.999 66.02C336.419 65.756 336.749 65.414 336.989 64.994L338.645 65.804C338.453 66.26 338.153 66.674 337.745 67.046C337.349 67.406 336.869 67.694 336.305 67.91C335.753 68.114 335.147 68.216 334.487 68.216ZM340.954 68V54.374H342.988V68H340.954ZM345.366 68V58.262H347.4V68H345.366ZM345.366 56.93V54.59H347.4V56.93H345.366ZM352.694 68.216C352.034 68.216 351.452 68.102 350.948 67.874C350.456 67.634 350.072 67.31 349.796 66.902C349.52 66.482 349.382 65.99 349.382 65.426C349.382 64.898 349.496 64.424 349.724 64.004C349.964 63.584 350.33 63.23 350.822 62.942C351.314 62.654 351.932 62.45 352.676 62.33L356.06 61.772V63.374L353.072 63.896C352.532 63.992 352.136 64.166 351.884 64.418C351.632 64.658 351.506 64.97 351.506 65.354C351.506 65.726 351.644 66.032 351.92 66.272C352.208 66.5 352.574 66.614 353.018 66.614C353.57 66.614 354.05 66.494 354.458 66.254C354.878 66.014 355.202 65.696 355.43 65.3C355.658 64.892 355.772 64.442 355.772 63.95V61.448C355.772 60.968 355.592 60.578 355.232 60.278C354.884 59.966 354.416 59.81 353.828 59.81C353.288 59.81 352.814 59.954 352.406 60.242C352.01 60.518 351.716 60.878 351.524 61.322L349.832 60.476C350.012 59.996 350.306 59.576 350.714 59.216C351.122 58.844 351.596 58.556 352.136 58.352C352.688 58.148 353.27 58.046 353.882 58.046C354.65 58.046 355.328 58.19 355.916 58.478C356.516 58.766 356.978 59.168 357.302 59.684C357.638 60.188 357.806 60.776 357.806 61.448V68H355.862V66.236L356.276 66.29C356.048 66.686 355.754 67.028 355.394 67.316C355.046 67.604 354.644 67.826 354.188 67.982C353.744 68.138 353.246 68.216 352.694 68.216ZM365.386 68.216C364.63 68.216 363.94 68.06 363.316 67.748C362.704 67.436 362.23 66.986 361.894 66.398L362.128 66.02V68H360.184V54.374H362.218V60.278L361.894 59.81C362.254 59.258 362.734 58.826 363.334 58.514C363.934 58.202 364.618 58.046 365.386 58.046C366.31 58.046 367.138 58.268 367.87 58.712C368.614 59.156 369.196 59.762 369.616 60.53C370.048 61.298 370.264 62.162 370.264 63.122C370.264 64.082 370.048 64.946 369.616 65.714C369.196 66.482 368.62 67.094 367.888 67.55C367.156 67.994 366.322 68.216 365.386 68.216ZM365.188 66.326C365.764 66.326 366.274 66.188 366.718 65.912C367.162 65.636 367.51 65.258 367.762 64.778C368.026 64.286 368.158 63.734 368.158 63.122C368.158 62.51 368.026 61.964 367.762 61.484C367.51 61.004 367.162 60.626 366.718 60.35C366.274 60.074 365.764 59.936 365.188 59.936C364.624 59.936 364.114 60.074 363.658 60.35C363.214 60.626 362.86 61.004 362.596 61.484C362.344 61.964 362.218 62.51 362.218 63.122C362.218 63.734 362.344 64.286 362.596 64.778C362.86 65.258 363.214 65.636 363.658 65.912C364.114 66.188 364.624 66.326 365.188 66.326ZM372.243 68V54.374H374.277V68H372.243ZM381.227 68.216C380.255 68.216 379.391 67.994 378.635 67.55C377.891 67.094 377.309 66.482 376.889 65.714C376.469 64.934 376.259 64.064 376.259 63.104C376.259 62.12 376.469 61.25 376.889 60.494C377.321 59.738 377.897 59.144 378.617 58.712C379.337 58.268 380.153 58.046 381.065 58.046C381.797 58.046 382.451 58.172 383.027 58.424C383.603 58.676 384.089 59.024 384.485 59.468C384.881 59.9 385.181 60.398 385.385 60.962C385.601 61.526 385.709 62.126 385.709 62.762C385.709 62.918 385.703 63.08 385.691 63.248C385.679 63.416 385.655 63.572 385.619 63.716H377.861V62.096H384.467L383.495 62.834C383.615 62.246 383.573 61.724 383.369 61.268C383.177 60.8 382.877 60.434 382.469 60.17C382.073 59.894 381.605 59.756 381.065 59.756C380.525 59.756 380.045 59.894 379.625 60.17C379.205 60.434 378.881 60.818 378.653 61.322C378.425 61.814 378.335 62.414 378.383 63.122C378.323 63.782 378.413 64.358 378.653 64.85C378.905 65.342 379.253 65.726 379.697 66.002C380.153 66.278 380.669 66.416 381.245 66.416C381.833 66.416 382.331 66.284 382.739 66.02C383.159 65.756 383.489 65.414 383.729 64.994L385.385 65.804C385.193 66.26 384.893 66.674 384.485 67.046C384.089 67.406 383.609 67.694 383.045 67.91C382.493 68.114 381.887 68.216 381.227 68.216Z" fill="#1F1F1F"/>
<path d="M250.886 91L254.624 80.57H256.248L259.986 91H258.516L257.662 88.55H253.21L252.356 91H250.886ZM253.644 87.29H257.228L255.24 81.564H255.632L253.644 87.29ZM261.147 91V80.402H262.449V91H261.147ZM266.205 91L263.615 83.454H265.057L267.115 89.768L266.611 89.754L268.627 83.454H269.859L271.875 89.754L271.371 89.768L273.443 83.454H274.871L272.281 91H271.035L269.047 84.7H269.439L267.451 91H266.205ZM277.974 91.168C277.479 91.168 277.041 91.0793 276.658 90.902C276.285 90.7153 275.991 90.4633 275.776 90.146C275.561 89.8193 275.454 89.446 275.454 89.026C275.454 88.6247 275.538 88.2653 275.706 87.948C275.883 87.6213 276.154 87.346 276.518 87.122C276.891 86.898 277.358 86.7393 277.918 86.646L280.718 86.184V87.276L278.212 87.696C277.727 87.78 277.372 87.934 277.148 88.158C276.933 88.382 276.826 88.6573 276.826 88.984C276.826 89.292 276.947 89.5487 277.19 89.754C277.442 89.9593 277.755 90.062 278.128 90.062C278.604 90.062 279.015 89.964 279.36 89.768C279.715 89.5627 279.99 89.2873 280.186 88.942C280.391 88.5967 280.494 88.214 280.494 87.794V85.876C280.494 85.4653 280.34 85.134 280.032 84.882C279.733 84.6207 279.337 84.49 278.842 84.49C278.413 84.49 278.03 84.602 277.694 84.826C277.367 85.0407 277.125 85.33 276.966 85.694L275.832 85.106C275.972 84.7607 276.196 84.4527 276.504 84.182C276.812 83.902 277.171 83.6827 277.582 83.524C277.993 83.3653 278.422 83.286 278.87 83.286C279.449 83.286 279.957 83.398 280.396 83.622C280.835 83.8367 281.175 84.14 281.418 84.532C281.67 84.9147 281.796 85.3627 281.796 85.876V91H280.522V89.572L280.76 89.656C280.601 89.9547 280.387 90.216 280.116 90.44C279.845 90.664 279.528 90.8413 279.164 90.972C278.8 91.1027 278.403 91.168 277.974 91.168ZM284.221 94.08C284.053 94.08 283.885 94.066 283.717 94.038C283.549 94.01 283.39 93.9633 283.241 93.898V92.736C283.343 92.7547 283.469 92.7733 283.619 92.792C283.777 92.82 283.931 92.834 284.081 92.834C284.519 92.834 284.851 92.736 285.075 92.54C285.308 92.3533 285.527 92.0267 285.733 91.56L286.209 90.426L286.181 91.56L282.961 83.454H284.375L286.881 89.894H286.461L288.953 83.454H290.395L286.993 91.896C286.834 92.2973 286.629 92.6613 286.377 92.988C286.134 93.324 285.835 93.59 285.481 93.786C285.126 93.982 284.706 94.08 284.221 94.08ZM294.255 91.168C293.499 91.168 292.841 90.9813 292.281 90.608C291.721 90.2347 291.324 89.7307 291.091 89.096L292.127 88.592C292.342 89.04 292.636 89.3947 293.009 89.656C293.382 89.9173 293.798 90.048 294.255 90.048C294.666 90.048 295.006 89.95 295.277 89.754C295.548 89.558 295.683 89.3013 295.683 88.984C295.683 88.76 295.618 88.5827 295.487 88.452C295.366 88.312 295.216 88.2047 295.039 88.13C294.862 88.046 294.698 87.9853 294.549 87.948L293.415 87.626C292.734 87.43 292.234 87.15 291.917 86.786C291.609 86.422 291.455 85.9973 291.455 85.512C291.455 85.064 291.567 84.6767 291.791 84.35C292.024 84.014 292.337 83.7527 292.729 83.566C293.13 83.3793 293.578 83.286 294.073 83.286C294.736 83.286 295.328 83.454 295.851 83.79C296.383 84.126 296.761 84.5973 296.985 85.204L295.921 85.694C295.753 85.302 295.501 84.994 295.165 84.77C294.829 84.5367 294.451 84.42 294.031 84.42C293.648 84.42 293.345 84.518 293.121 84.714C292.897 84.9007 292.785 85.1387 292.785 85.428C292.785 85.6427 292.841 85.82 292.953 85.96C293.065 86.0907 293.2 86.1933 293.359 86.268C293.518 86.3333 293.672 86.3893 293.821 86.436L295.053 86.8C295.669 86.9773 296.145 87.2527 296.481 87.626C296.826 87.9993 296.999 88.4473 296.999 88.97C296.999 89.39 296.882 89.768 296.649 90.104C296.416 90.44 296.094 90.7013 295.683 90.888C295.272 91.0747 294.796 91.168 294.255 91.168ZM301.123 91V80.402H302.425V84.924L302.187 84.798C302.374 84.322 302.673 83.9533 303.083 83.692C303.503 83.4213 303.993 83.286 304.553 83.286C305.095 83.286 305.575 83.4073 305.995 83.65C306.425 83.8927 306.761 84.2287 307.003 84.658C307.255 85.0873 307.381 85.5727 307.381 86.114V91H306.065V86.534C306.065 86.114 305.986 85.7593 305.827 85.47C305.678 85.1807 305.468 84.9567 305.197 84.798C304.927 84.63 304.614 84.546 304.259 84.546C303.914 84.546 303.601 84.63 303.321 84.798C303.041 84.9567 302.822 85.1853 302.663 85.484C302.505 85.7733 302.425 86.1233 302.425 86.534V91H301.123ZM312.716 91.168C311.988 91.168 311.34 90.9953 310.77 90.65C310.201 90.3047 309.753 89.8333 309.426 89.236C309.1 88.6293 308.936 87.9527 308.936 87.206C308.936 86.45 309.095 85.778 309.412 85.19C309.739 84.602 310.178 84.14 310.728 83.804C311.288 83.4587 311.914 83.286 312.604 83.286C313.164 83.286 313.659 83.3887 314.088 83.594C314.527 83.79 314.896 84.0607 315.194 84.406C315.502 84.742 315.736 85.1293 315.894 85.568C316.062 85.9973 316.146 86.4453 316.146 86.912C316.146 87.0147 316.137 87.1313 316.118 87.262C316.109 87.3833 316.095 87.5 316.076 87.612H309.888V86.492H315.32L314.704 86.996C314.788 86.5107 314.742 86.0767 314.564 85.694C314.387 85.3113 314.126 85.008 313.78 84.784C313.435 84.56 313.043 84.448 312.604 84.448C312.166 84.448 311.764 84.56 311.4 84.784C311.036 85.008 310.752 85.33 310.546 85.75C310.35 86.1607 310.271 86.6507 310.308 87.22C310.271 87.7707 310.355 88.256 310.56 88.676C310.775 89.0867 311.074 89.4087 311.456 89.642C311.848 89.866 312.273 89.978 312.73 89.978C313.234 89.978 313.659 89.8613 314.004 89.628C314.35 89.3947 314.63 89.096 314.844 88.732L315.936 89.292C315.787 89.6373 315.554 89.9547 315.236 90.244C314.928 90.524 314.56 90.748 314.13 90.916C313.71 91.084 313.239 91.168 312.716 91.168ZM317.844 91V83.454H319.118V84.84L318.978 84.644C319.155 84.2147 319.426 83.8973 319.79 83.692C320.154 83.4773 320.597 83.37 321.12 83.37H321.582V84.602H320.924C320.392 84.602 319.963 84.77 319.636 85.106C319.309 85.4327 319.146 85.8993 319.146 86.506V91H317.844ZM326.21 91.168C325.482 91.168 324.834 90.9953 324.264 90.65C323.695 90.3047 323.247 89.8333 322.92 89.236C322.594 88.6293 322.43 87.9527 322.43 87.206C322.43 86.45 322.589 85.778 322.906 85.19C323.233 84.602 323.672 84.14 324.222 83.804C324.782 83.4587 325.408 83.286 326.098 83.286C326.658 83.286 327.153 83.3887 327.582 83.594C328.021 83.79 328.39 84.0607 328.688 84.406C328.996 84.742 329.23 85.1293 329.388 85.568C329.556 85.9973 329.64 86.4453 329.64 86.912C329.64 87.0147 329.631 87.1313 329.612 87.262C329.603 87.3833 329.589 87.5 329.57 87.612H323.382V86.492H328.814L328.198 86.996C328.282 86.5107 328.236 86.0767 328.058 85.694C327.881 85.3113 327.62 85.008 327.274 84.784C326.929 84.56 326.537 84.448 326.098 84.448C325.66 84.448 325.258 84.56 324.894 84.784C324.53 85.008 324.246 85.33 324.04 85.75C323.844 86.1607 323.765 86.6507 323.802 87.22C323.765 87.7707 323.849 88.256 324.054 88.676C324.269 89.0867 324.568 89.4087 324.95 89.642C325.342 89.866 325.767 89.978 326.224 89.978C326.728 89.978 327.153 89.8613 327.498 89.628C327.844 89.3947 328.124 89.096 328.338 88.732L329.43 89.292C329.281 89.6373 329.048 89.9547 328.73 90.244C328.422 90.524 328.054 90.748 327.624 90.916C327.204 91.084 326.733 91.168 326.21 91.168ZM335.494 91L332.904 83.454H334.346L336.404 89.768L335.9 89.754L337.916 83.454H339.148L341.164 89.754L340.66 89.768L342.732 83.454H344.16L341.57 91H340.324L338.336 84.7H338.728L336.74 91H335.494ZM345.324 91V80.402H346.626V84.924L346.388 84.798C346.575 84.322 346.874 83.9533 347.284 83.692C347.704 83.4213 348.194 83.286 348.754 83.286C349.296 83.286 349.776 83.4073 350.196 83.65C350.626 83.8927 350.962 84.2287 351.204 84.658C351.456 85.0873 351.582 85.5727 351.582 86.114V91H350.266V86.534C350.266 86.114 350.187 85.7593 350.028 85.47C349.879 85.1807 349.669 84.9567 349.398 84.798C349.128 84.63 348.815 84.546 348.46 84.546C348.115 84.546 347.802 84.63 347.522 84.798C347.242 84.9567 347.023 85.1853 346.864 85.484C346.706 85.7733 346.626 86.1233 346.626 86.534V91H345.324ZM356.918 91.168C356.19 91.168 355.541 90.9953 354.972 90.65C354.402 90.3047 353.954 89.8333 353.628 89.236C353.301 88.6293 353.138 87.9527 353.138 87.206C353.138 86.45 353.296 85.778 353.614 85.19C353.94 84.602 354.379 84.14 354.93 83.804C355.49 83.4587 356.115 83.286 356.806 83.286C357.366 83.286 357.86 83.3887 358.29 83.594C358.728 83.79 359.097 84.0607 359.396 84.406C359.704 84.742 359.937 85.1293 360.096 85.568C360.264 85.9973 360.347 86.4453 360.347 86.912C360.347 87.0147 360.338 87.1313 360.32 87.262C360.31 87.3833 360.296 87.5 360.278 87.612H354.09V86.492H359.522L358.906 86.996C358.99 86.5107 358.943 86.0767 358.766 85.694C358.588 85.3113 358.327 85.008 357.982 84.784C357.636 84.56 357.244 84.448 356.806 84.448C356.367 84.448 355.966 84.56 355.602 84.784C355.238 85.008 354.953 85.33 354.748 85.75C354.552 86.1607 354.472 86.6507 354.51 87.22C354.472 87.7707 354.556 88.256 354.762 88.676C354.976 89.0867 355.275 89.4087 355.658 89.642C356.05 89.866 356.474 89.978 356.932 89.978C357.436 89.978 357.86 89.8613 358.206 89.628C358.551 89.3947 358.831 89.096 359.046 88.732L360.138 89.292C359.988 89.6373 359.755 89.9547 359.438 90.244C359.13 90.524 358.761 90.748 358.332 90.916C357.912 91.084 357.44 91.168 356.918 91.168ZM362.045 91V83.454H363.319V84.924L363.109 84.798C363.296 84.322 363.594 83.9533 364.005 83.692C364.425 83.4213 364.915 83.286 365.475 83.286C366.016 83.286 366.497 83.4073 366.917 83.65C367.346 83.8927 367.682 84.2287 367.925 84.658C368.177 85.0873 368.303 85.5727 368.303 86.114V91H366.987V86.534C366.987 86.114 366.912 85.7593 366.763 85.47C366.614 85.1807 366.399 84.9567 366.119 84.798C365.848 84.63 365.536 84.546 365.181 84.546C364.826 84.546 364.509 84.63 364.229 84.798C363.958 84.9567 363.744 85.1853 363.585 85.484C363.426 85.7733 363.347 86.1233 363.347 86.534V91H362.045ZM372.992 94.08C372.824 94.08 372.656 94.066 372.488 94.038C372.32 94.01 372.161 93.9633 372.012 93.898V92.736C372.115 92.7547 372.241 92.7733 372.39 92.792C372.549 92.82 372.703 92.834 372.852 92.834C373.291 92.834 373.622 92.736 373.846 92.54C374.079 92.3533 374.299 92.0267 374.504 91.56L374.98 90.426L374.952 91.56L371.732 83.454H373.146L375.652 89.894H375.232L377.724 83.454H379.166L375.764 91.896C375.605 92.2973 375.4 92.6613 375.148 92.988C374.905 93.324 374.607 93.59 374.252 93.786C373.897 93.982 373.477 94.08 372.992 94.08ZM383.772 91.168C383.044 91.168 382.386 91 381.798 90.664C381.21 90.3187 380.743 89.8473 380.398 89.25C380.052 88.6527 379.88 87.976 379.88 87.22C379.88 86.464 380.048 85.792 380.384 85.204C380.729 84.616 381.196 84.1493 381.784 83.804C382.372 83.4587 383.034 83.286 383.772 83.286C384.5 83.286 385.158 83.4587 385.746 83.804C386.334 84.14 386.796 84.602 387.132 85.19C387.477 85.778 387.65 86.4547 387.65 87.22C387.65 87.9853 387.472 88.6667 387.118 89.264C386.763 89.852 386.292 90.3187 385.704 90.664C385.125 91 384.481 91.168 383.772 91.168ZM383.772 89.908C384.238 89.908 384.658 89.7913 385.032 89.558C385.414 89.3247 385.713 89.0027 385.928 88.592C386.152 88.1813 386.264 87.724 386.264 87.22C386.264 86.7067 386.152 86.254 385.928 85.862C385.713 85.4607 385.414 85.1433 385.032 84.91C384.658 84.6673 384.238 84.546 383.772 84.546C383.296 84.546 382.866 84.6673 382.484 84.91C382.11 85.1433 381.812 85.4607 381.588 85.862C381.364 86.254 381.252 86.7067 381.252 87.22C381.252 87.724 381.364 88.1813 381.588 88.592C381.812 89.0027 382.11 89.3247 382.484 89.558C382.866 89.7913 383.296 89.908 383.772 89.908ZM392.022 91.168C391.481 91.168 390.991 91.042 390.552 90.79C390.123 90.538 389.787 90.188 389.544 89.74C389.311 89.2827 389.194 88.76 389.194 88.172V83.454H390.496V88.032C390.496 88.4053 390.571 88.732 390.72 89.012C390.879 89.292 391.093 89.5113 391.364 89.67C391.644 89.8287 391.961 89.908 392.316 89.908C392.671 89.908 392.983 89.8287 393.254 89.67C393.534 89.5113 393.749 89.2827 393.898 88.984C394.057 88.6853 394.136 88.3307 394.136 87.92V83.454H395.452V91H394.178V89.53L394.388 89.656C394.211 90.132 393.907 90.5053 393.478 90.776C393.058 91.0373 392.573 91.168 392.022 91.168ZM399.889 91V83.454H401.163V84.924L400.953 84.798C401.14 84.322 401.438 83.9533 401.849 83.692C402.269 83.4213 402.759 83.286 403.319 83.286C403.86 83.286 404.341 83.4073 404.761 83.65C405.19 83.8927 405.526 84.2287 405.769 84.658C406.021 85.0873 406.147 85.5727 406.147 86.114V91H404.831V86.534C404.831 86.114 404.756 85.7593 404.607 85.47C404.458 85.1807 404.243 84.9567 403.963 84.798C403.692 84.63 403.38 84.546 403.025 84.546C402.67 84.546 402.353 84.63 402.073 84.798C401.802 84.9567 401.588 85.1853 401.429 85.484C401.27 85.7733 401.191 86.1233 401.191 86.534V91H399.889ZM411.482 91.168C410.754 91.168 410.105 90.9953 409.536 90.65C408.967 90.3047 408.519 89.8333 408.192 89.236C407.865 88.6293 407.702 87.9527 407.702 87.206C407.702 86.45 407.861 85.778 408.178 85.19C408.505 84.602 408.943 84.14 409.494 83.804C410.054 83.4587 410.679 83.286 411.37 83.286C411.93 83.286 412.425 83.3887 412.854 83.594C413.293 83.79 413.661 84.0607 413.96 84.406C414.268 84.742 414.501 85.1293 414.66 85.568C414.828 85.9973 414.912 86.4453 414.912 86.912C414.912 87.0147 414.903 87.1313 414.884 87.262C414.875 87.3833 414.861 87.5 414.842 87.612H408.654V86.492H414.086L413.47 86.996C413.554 86.5107 413.507 86.0767 413.33 85.694C413.153 85.3113 412.891 85.008 412.546 84.784C412.201 84.56 411.809 84.448 411.37 84.448C410.931 84.448 410.53 84.56 410.166 84.784C409.802 85.008 409.517 85.33 409.312 85.75C409.116 86.1607 409.037 86.6507 409.074 87.22C409.037 87.7707 409.121 88.256 409.326 88.676C409.541 89.0867 409.839 89.4087 410.222 89.642C410.614 89.866 411.039 89.978 411.496 89.978C412 89.978 412.425 89.8613 412.77 89.628C413.115 89.3947 413.395 89.096 413.61 88.732L414.702 89.292C414.553 89.6373 414.319 89.9547 414.002 90.244C413.694 90.524 413.325 90.748 412.896 90.916C412.476 91.084 412.005 91.168 411.482 91.168ZM420.082 91.168C419.354 91.168 418.705 90.9953 418.136 90.65C417.566 90.3047 417.118 89.8333 416.792 89.236C416.465 88.6293 416.302 87.9527 416.302 87.206C416.302 86.45 416.46 85.778 416.778 85.19C417.104 84.602 417.543 84.14 418.094 83.804C418.654 83.4587 419.279 83.286 419.97 83.286C420.53 83.286 421.024 83.3887 421.454 83.594C421.892 83.79 422.261 84.0607 422.56 84.406C422.868 84.742 423.101 85.1293 423.26 85.568C423.428 85.9973 423.512 86.4453 423.512 86.912C423.512 87.0147 423.502 87.1313 423.484 87.262C423.474 87.3833 423.46 87.5 423.442 87.612H417.254V86.492H422.686L422.07 86.996C422.154 86.5107 422.107 86.0767 421.93 85.694C421.752 85.3113 421.491 85.008 421.146 84.784C420.8 84.56 420.408 84.448 419.97 84.448C419.531 84.448 419.13 84.56 418.766 84.784C418.402 85.008 418.117 85.33 417.912 85.75C417.716 86.1607 417.636 86.6507 417.674 87.22C417.636 87.7707 417.72 88.256 417.926 88.676C418.14 89.0867 418.439 89.4087 418.822 89.642C419.214 89.866 419.638 89.978 420.096 89.978C420.6 89.978 421.024 89.8613 421.37 89.628C421.715 89.3947 421.995 89.096 422.21 88.732L423.302 89.292C423.152 89.6373 422.919 89.9547 422.602 90.244C422.294 90.524 421.925 90.748 421.496 90.916C421.076 91.084 420.604 91.168 420.082 91.168ZM428.639 91.168C427.93 91.168 427.291 90.9953 426.721 90.65C426.161 90.3047 425.718 89.8333 425.391 89.236C425.065 88.6387 424.901 87.9713 424.901 87.234C424.901 86.478 425.065 85.806 425.391 85.218C425.718 84.6207 426.161 84.1493 426.721 83.804C427.291 83.4587 427.93 83.286 428.639 83.286C429.265 83.286 429.82 83.4213 430.305 83.692C430.791 83.9533 431.173 84.308 431.453 84.756L431.243 85.078V80.402H432.559V91H431.285V89.39L431.453 89.614C431.192 90.1087 430.809 90.4913 430.305 90.762C429.811 91.0327 429.255 91.168 428.639 91.168ZM428.751 89.908C429.227 89.908 429.652 89.7913 430.025 89.558C430.399 89.3247 430.693 89.0073 430.907 88.606C431.131 88.1953 431.243 87.738 431.243 87.234C431.243 86.7207 431.131 86.2633 430.907 85.862C430.693 85.4513 430.399 85.1293 430.025 84.896C429.652 84.6627 429.227 84.546 428.751 84.546C428.285 84.546 427.86 84.6673 427.477 84.91C427.104 85.1433 426.81 85.4607 426.595 85.862C426.381 86.254 426.273 86.7113 426.273 87.234C426.273 87.738 426.381 88.1953 426.595 88.606C426.81 89.0073 427.104 89.3247 427.477 89.558C427.851 89.7913 428.275 89.908 428.751 89.908ZM440.578 91.168C439.85 91.168 439.192 91 438.604 90.664C438.016 90.3187 437.55 89.8473 437.204 89.25C436.859 88.6527 436.686 87.976 436.686 87.22C436.686 86.464 436.854 85.792 437.19 85.204C437.536 84.616 438.002 84.1493 438.59 83.804C439.178 83.4587 439.841 83.286 440.578 83.286C441.306 83.286 441.964 83.4587 442.552 83.804C443.14 84.14 443.602 84.602 443.938 85.19C444.284 85.778 444.456 86.4547 444.456 87.22C444.456 87.9853 444.279 88.6667 443.924 89.264C443.57 89.852 443.098 90.3187 442.51 90.664C441.932 91 441.288 91.168 440.578 91.168ZM440.578 89.908C441.045 89.908 441.465 89.7913 441.838 89.558C442.221 89.3247 442.52 89.0027 442.734 88.592C442.958 88.1813 443.07 87.724 443.07 87.22C443.07 86.7067 442.958 86.254 442.734 85.862C442.52 85.4607 442.221 85.1433 441.838 84.91C441.465 84.6673 441.045 84.546 440.578 84.546C440.102 84.546 439.673 84.6673 439.29 84.91C438.917 85.1433 438.618 85.4607 438.394 85.862C438.17 86.254 438.058 86.7067 438.058 87.22C438.058 87.724 438.17 88.1813 438.394 88.592C438.618 89.0027 438.917 89.3247 439.29 89.558C439.673 89.7913 440.102 89.908 440.578 89.908ZM446.154 91V83.454H447.428V84.924L447.218 84.798C447.405 84.322 447.704 83.9533 448.114 83.692C448.534 83.4213 449.024 83.286 449.584 83.286C450.126 83.286 450.606 83.4073 451.026 83.65C451.456 83.8927 451.792 84.2287 452.034 84.658C452.286 85.0873 452.412 85.5727 452.412 86.114V91H451.096V86.534C451.096 86.114 451.022 85.7593 450.872 85.47C450.723 85.1807 450.508 84.9567 450.228 84.798C449.958 84.63 449.645 84.546 449.29 84.546C448.936 84.546 448.618 84.63 448.338 84.798C448.068 84.9567 447.853 85.1853 447.694 85.484C447.536 85.7733 447.456 86.1233 447.456 86.534V91H446.154Z" fill="#1F1F1F" fill-opacity="0.64"/>
<g clip-path="url(#clip2_169_8134)">
<path d="M607 31.25V32.5C607 33.8261 606.473 35.0979 605.536 36.0355C604.598 36.9732 603.326 37.5 602 37.5H593.25" stroke="#FF6A33" stroke-width="3" stroke-linecap="round" stroke-linejoin="round"/>
<path d="M607 20H602C601.337 20 600.701 20.2634 600.232 20.7322C599.763 21.2011 599.5 21.837 599.5 22.5V28.75C599.5 29.413 599.763 30.0489 600.232 30.5178C600.701 30.9866 601.337 31.25 602 31.25H607V20ZM607 20C607 18.0302 606.612 16.0796 605.858 14.2597C605.104 12.4399 603.999 10.7863 602.607 9.3934C601.214 8.00052 599.56 6.89563 597.74 6.14181C595.92 5.38799 593.97 5 592 5C590.03 5 588.08 5.38799 586.26 6.14181C584.44 6.89563 582.786 8.00052 581.393 9.3934C580.001 10.7863 578.896 12.4399 578.142 14.2597C577.388 16.0796 577 18.0302 577 20M577 20V28.75C577 29.413 577.263 30.0489 577.732 30.5178C578.201 30.9866 578.837 31.25 579.5 31.25H582C582.663 31.25 583.299 30.9866 583.768 30.5178C584.237 30.0489 584.5 29.413 584.5 28.75V22.5C584.5 21.837 584.237 21.2011 583.768 20.7322C583.299 20.2634 582.663 20 582 20H577Z" stroke="#FF6A33" stroke-width="3" stroke-linecap="round" stroke-linejoin="round"/>
</g>
<path d="M562.049 68.216C561.209 68.216 560.429 68.06 559.709 67.748C558.989 67.424 558.377 66.986 557.873 66.434C557.369 65.882 556.997 65.246 556.757 64.526L558.557 63.77C558.881 64.598 559.355 65.234 559.979 65.678C560.603 66.122 561.323 66.344 562.139 66.344C562.619 66.344 563.039 66.272 563.399 66.128C563.759 65.972 564.035 65.756 564.227 65.48C564.431 65.204 564.533 64.886 564.533 64.526C564.533 64.034 564.395 63.644 564.119 63.356C563.843 63.068 563.435 62.84 562.895 62.672L560.375 61.88C559.367 61.568 558.599 61.094 558.071 60.458C557.543 59.81 557.279 59.054 557.279 58.19C557.279 57.434 557.465 56.774 557.837 56.21C558.209 55.634 558.719 55.184 559.367 54.86C560.027 54.536 560.777 54.374 561.617 54.374C562.421 54.374 563.153 54.518 563.813 54.806C564.473 55.082 565.037 55.466 565.505 55.958C565.985 56.45 566.333 57.02 566.549 57.668L564.785 58.442C564.521 57.734 564.107 57.188 563.543 56.804C562.991 56.42 562.349 56.228 561.617 56.228C561.173 56.228 560.783 56.306 560.447 56.462C560.111 56.606 559.847 56.822 559.655 57.11C559.475 57.386 559.385 57.71 559.385 58.082C559.385 58.514 559.523 58.898 559.799 59.234C560.075 59.57 560.495 59.822 561.059 59.99L563.399 60.728C564.467 61.052 565.271 61.52 565.811 62.132C566.351 62.732 566.621 63.482 566.621 64.382C566.621 65.126 566.423 65.786 566.027 66.362C565.643 66.938 565.109 67.394 564.425 67.73C563.741 68.054 562.949 68.216 562.049 68.216ZM572.281 68.216C571.549 68.216 570.907 68.054 570.355 67.73C569.803 67.394 569.371 66.932 569.059 66.344C568.759 65.744 568.609 65.054 568.609 64.274V58.262H570.643V64.094C570.643 64.538 570.733 64.928 570.913 65.264C571.093 65.6 571.345 65.864 571.669 66.056C571.993 66.236 572.365 66.326 572.785 66.326C573.217 66.326 573.595 66.23 573.919 66.038C574.243 65.846 574.495 65.576 574.675 65.228C574.867 64.88 574.963 64.472 574.963 64.004V58.262H576.979V68H575.053V66.092L575.269 66.344C575.041 66.944 574.663 67.406 574.135 67.73C573.607 68.054 572.989 68.216 572.281 68.216ZM579.354 71.6V58.262H581.298V60.278L581.064 59.81C581.424 59.258 581.904 58.826 582.504 58.514C583.104 58.202 583.788 58.046 584.556 58.046C585.48 58.046 586.308 58.268 587.04 58.712C587.784 59.156 588.366 59.762 588.786 60.53C589.218 61.298 589.434 62.162 589.434 63.122C589.434 64.082 589.218 64.946 588.786 65.714C588.366 66.482 587.79 67.094 587.058 67.55C586.326 67.994 585.492 68.216 584.556 68.216C583.8 68.216 583.11 68.06 582.486 67.748C581.874 67.436 581.4 66.986 581.064 66.398L581.388 66.02V71.6H579.354ZM584.358 66.326C584.934 66.326 585.444 66.188 585.888 65.912C586.332 65.636 586.68 65.258 586.932 64.778C587.196 64.286 587.328 63.734 587.328 63.122C587.328 62.51 587.196 61.964 586.932 61.484C586.68 61.004 586.332 60.626 585.888 60.35C585.444 60.074 584.934 59.936 584.358 59.936C583.794 59.936 583.284 60.074 582.828 60.35C582.384 60.626 582.03 61.004 581.766 61.484C581.514 61.964 581.388 62.51 581.388 63.122C581.388 63.734 581.514 64.286 581.766 64.778C582.03 65.258 582.384 65.636 582.828 65.912C583.284 66.188 583.794 66.326 584.358 66.326ZM591.413 71.6V58.262H593.357V60.278L593.123 59.81C593.483 59.258 593.963 58.826 594.563 58.514C595.163 58.202 595.847 58.046 596.615 58.046C597.539 58.046 598.367 58.268 599.099 58.712C599.843 59.156 600.425 59.762 600.845 60.53C601.277 61.298 601.493 62.162 601.493 63.122C601.493 64.082 601.277 64.946 600.845 65.714C600.425 66.482 599.849 67.094 599.117 67.55C598.385 67.994 597.551 68.216 596.615 68.216C595.859 68.216 595.169 68.06 594.545 67.748C593.933 67.436 593.459 66.986 593.123 66.398L593.447 66.02V71.6H591.413ZM596.417 66.326C596.993 66.326 597.503 66.188 597.947 65.912C598.391 65.636 598.739 65.258 598.991 64.778C599.255 64.286 599.387 63.734 599.387 63.122C599.387 62.51 599.255 61.964 598.991 61.484C598.739 61.004 598.391 60.626 597.947 60.35C597.503 60.074 596.993 59.936 596.417 59.936C595.853 59.936 595.343 60.074 594.887 60.35C594.443 60.626 594.089 61.004 593.825 61.484C593.573 61.964 593.447 62.51 593.447 63.122C593.447 63.734 593.573 64.286 593.825 64.778C594.089 65.258 594.443 65.636 594.887 65.912C595.343 66.188 595.853 66.326 596.417 66.326ZM608.169 68.216C607.233 68.216 606.375 67.994 605.595 67.55C604.827 67.106 604.215 66.5 603.759 65.732C603.303 64.964 603.075 64.094 603.075 63.122C603.075 62.138 603.303 61.268 603.759 60.512C604.215 59.744 604.827 59.144 605.595 58.712C606.363 58.268 607.221 58.046 608.169 58.046C609.129 58.046 609.987 58.268 610.743 58.712C611.511 59.144 612.117 59.744 612.561 60.512C613.017 61.268 613.245 62.138 613.245 63.122C613.245 64.106 613.017 64.982 612.561 65.75C612.105 66.518 611.493 67.124 610.725 67.568C609.957 68 609.105 68.216 608.169 68.216ZM608.169 66.326C608.745 66.326 609.255 66.188 609.699 65.912C610.143 65.636 610.491 65.258 610.743 64.778C611.007 64.286 611.139 63.734 611.139 63.122C611.139 62.51 611.007 61.964 610.743 61.484C610.491 61.004 610.143 60.626 609.699 60.35C609.255 60.074 608.745 59.936 608.169 59.936C607.605 59.936 607.095 60.074 606.639 60.35C606.195 60.626 605.841 61.004 605.577 61.484C605.325 61.964 605.199 62.51 605.199 63.122C605.199 63.734 605.325 64.286 605.577 64.778C605.841 65.258 606.195 65.636 606.639 65.912C607.095 66.188 607.605 66.326 608.169 66.326ZM615.231 68V58.262H617.175V60.224L616.995 59.936C617.211 59.3 617.559 58.844 618.039 58.568C618.519 58.28 619.095 58.136 619.767 58.136H620.361V59.99H619.515C618.843 59.99 618.297 60.2 617.877 60.62C617.469 61.028 617.265 61.616 617.265 62.384V68H615.231ZM626.14 68.108C625.12 68.108 624.328 67.82 623.764 67.244C623.2 66.668 622.918 65.858 622.918 64.814V60.098H621.208V58.262H621.478C621.934 58.262 622.288 58.13 622.54 57.866C622.792 57.602 622.918 57.242 622.918 56.786V56.03H624.952V58.262H627.166V60.098H624.952V64.724C624.952 65.06 625.006 65.348 625.114 65.588C625.222 65.816 625.396 65.996 625.636 66.128C625.876 66.248 626.188 66.308 626.572 66.308C626.668 66.308 626.776 66.302 626.896 66.29C627.016 66.278 627.13 66.266 627.238 66.254V68C627.07 68.024 626.884 68.048 626.68 68.072C626.476 68.096 626.296 68.108 626.14 68.108Z" fill="#1F1F1F"/>
<path d="M525.203 91L522.277 80.57H523.719L526.169 89.754H525.833L528.381 80.57H529.823L532.357 89.754H532.007L534.471 80.57H535.913L532.987 91H531.461L528.913 81.858H529.277L526.729 91H525.203ZM540.029 91.168C539.301 91.168 538.652 90.9953 538.083 90.65C537.513 90.3047 537.065 89.8333 536.739 89.236C536.412 88.6293 536.249 87.9527 536.249 87.206C536.249 86.45 536.407 85.778 536.725 85.19C537.051 84.602 537.49 84.14 538.041 83.804C538.601 83.4587 539.226 83.286 539.917 83.286C540.477 83.286 540.971 83.3887 541.401 83.594C541.839 83.79 542.208 84.0607 542.507 84.406C542.815 84.742 543.048 85.1293 543.207 85.568C543.375 85.9973 543.459 86.4453 543.459 86.912C543.459 87.0147 543.449 87.1313 543.431 87.262C543.421 87.3833 543.407 87.5 543.389 87.612H537.201V86.492H542.633L542.017 86.996C542.101 86.5107 542.054 86.0767 541.877 85.694C541.699 85.3113 541.438 85.008 541.093 84.784C540.747 84.56 540.355 84.448 539.917 84.448C539.478 84.448 539.077 84.56 538.713 84.784C538.349 85.008 538.064 85.33 537.859 85.75C537.663 86.1607 537.583 86.6507 537.621 87.22C537.583 87.7707 537.667 88.256 537.873 88.676C538.087 89.0867 538.386 89.4087 538.769 89.642C539.161 89.866 539.585 89.978 540.043 89.978C540.547 89.978 540.971 89.8613 541.317 89.628C541.662 89.3947 541.942 89.096 542.157 88.732L543.249 89.292C543.099 89.6373 542.866 89.9547 542.549 90.244C542.241 90.524 541.872 90.748 541.443 90.916C541.023 91.084 540.551 91.168 540.029 91.168ZM545.38 84.056V83.426C545.67 83.3513 545.884 83.216 546.024 83.02C546.174 82.8147 546.262 82.558 546.29 82.25H545.66V80.57H547.018V81.76C547.018 82.3667 546.878 82.8707 546.598 83.272C546.328 83.664 545.922 83.9253 545.38 84.056ZM549.34 91V83.454H550.614V84.84L550.474 84.644C550.651 84.2147 550.922 83.8973 551.286 83.692C551.65 83.4773 552.093 83.37 552.616 83.37H553.078V84.602H552.42C551.888 84.602 551.459 84.77 551.132 85.106C550.805 85.4327 550.642 85.8993 550.642 86.506V91H549.34ZM557.707 91.168C556.979 91.168 556.33 90.9953 555.761 90.65C555.191 90.3047 554.743 89.8333 554.417 89.236C554.09 88.6293 553.927 87.9527 553.927 87.206C553.927 86.45 554.085 85.778 554.403 85.19C554.729 84.602 555.168 84.14 555.719 83.804C556.279 83.4587 556.904 83.286 557.595 83.286C558.155 83.286 558.649 83.3887 559.079 83.594C559.517 83.79 559.886 84.0607 560.185 84.406C560.493 84.742 560.726 85.1293 560.885 85.568C561.053 85.9973 561.137 86.4453 561.137 86.912C561.137 87.0147 561.127 87.1313 561.109 87.262C561.099 87.3833 561.085 87.5 561.067 87.612H554.879V86.492H560.311L559.695 86.996C559.779 86.5107 559.732 86.0767 559.555 85.694C559.377 85.3113 559.116 85.008 558.771 84.784C558.425 84.56 558.033 84.448 557.595 84.448C557.156 84.448 556.755 84.56 556.391 84.784C556.027 85.008 555.742 85.33 555.537 85.75C555.341 86.1607 555.261 86.6507 555.299 87.22C555.261 87.7707 555.345 88.256 555.551 88.676C555.765 89.0867 556.064 89.4087 556.447 89.642C556.839 89.866 557.263 89.978 557.721 89.978C558.225 89.978 558.649 89.8613 558.995 89.628C559.34 89.3947 559.62 89.096 559.835 88.732L560.927 89.292C560.777 89.6373 560.544 89.9547 560.227 90.244C559.919 90.524 559.55 90.748 559.121 90.916C558.701 91.084 558.229 91.168 557.707 91.168ZM563.966 94.08C563.882 94.08 563.779 94.0753 563.658 94.066C563.537 94.0567 563.439 94.0427 563.364 94.024V92.848C563.551 92.876 563.737 92.89 563.924 92.89C564.307 92.89 564.624 92.7827 564.876 92.568C565.128 92.3533 565.254 92.0267 565.254 91.588V83.454H566.556V91.588C566.556 92.1293 566.444 92.582 566.22 92.946C565.996 93.3193 565.688 93.5993 565.296 93.786C564.904 93.982 564.461 94.08 563.966 94.08ZM565.254 82.25V80.57H566.556V82.25H565.254ZM571.25 91.168C570.709 91.168 570.219 91.042 569.78 90.79C569.351 90.538 569.015 90.188 568.772 89.74C568.539 89.2827 568.422 88.76 568.422 88.172V83.454H569.724V88.032C569.724 88.4053 569.799 88.732 569.948 89.012C570.107 89.292 570.322 89.5113 570.592 89.67C570.872 89.8287 571.19 89.908 571.544 89.908C571.899 89.908 572.212 89.8287 572.482 89.67C572.762 89.5113 572.977 89.2827 573.126 88.984C573.285 88.6853 573.364 88.3307 573.364 87.92V83.454H574.68V91H573.406V89.53L573.616 89.656C573.439 90.132 573.136 90.5053 572.706 90.776C572.286 91.0373 571.801 91.168 571.25 91.168ZM579.399 91.168C578.643 91.168 577.985 90.9813 577.425 90.608C576.865 90.2347 576.469 89.7307 576.235 89.096L577.271 88.592C577.486 89.04 577.78 89.3947 578.153 89.656C578.527 89.9173 578.942 90.048 579.399 90.048C579.81 90.048 580.151 89.95 580.421 89.754C580.692 89.558 580.827 89.3013 580.827 88.984C580.827 88.76 580.762 88.5827 580.631 88.452C580.51 88.312 580.361 88.2047 580.183 88.13C580.006 88.046 579.843 87.9853 579.693 87.948L578.559 87.626C577.878 87.43 577.379 87.15 577.061 86.786C576.753 86.422 576.599 85.9973 576.599 85.512C576.599 85.064 576.711 84.6767 576.935 84.35C577.169 84.014 577.481 83.7527 577.873 83.566C578.275 83.3793 578.723 83.286 579.217 83.286C579.88 83.286 580.473 83.454 580.995 83.79C581.527 84.126 581.905 84.5973 582.129 85.204L581.065 85.694C580.897 85.302 580.645 84.994 580.309 84.77C579.973 84.5367 579.595 84.42 579.175 84.42C578.793 84.42 578.489 84.518 578.265 84.714C578.041 84.9007 577.929 85.1387 577.929 85.428C577.929 85.6427 577.985 85.82 578.097 85.96C578.209 86.0907 578.345 86.1933 578.503 86.268C578.662 86.3333 578.816 86.3893 578.965 86.436L580.197 86.8C580.813 86.9773 581.289 87.2527 581.625 87.626C581.971 87.9993 582.143 88.4473 582.143 88.97C582.143 89.39 582.027 89.768 581.793 90.104C581.56 90.44 581.238 90.7013 580.827 90.888C580.417 91.0747 579.941 91.168 579.399 91.168ZM586.914 91.084C586.177 91.084 585.607 90.874 585.206 90.454C584.814 90.034 584.618 89.4413 584.618 88.676V84.7H583.246V83.454H583.526C583.862 83.454 584.128 83.3513 584.324 83.146C584.52 82.9407 584.618 82.67 584.618 82.334V81.718H585.92V83.454H587.614V84.7H585.92V88.634C585.92 88.886 585.957 89.1053 586.032 89.292C586.116 89.4787 586.251 89.628 586.438 89.74C586.625 89.8427 586.872 89.894 587.18 89.894C587.245 89.894 587.325 89.8893 587.418 89.88C587.521 89.8707 587.614 89.8613 587.698 89.852V91C587.577 91.028 587.441 91.0467 587.292 91.056C587.143 91.0747 587.017 91.084 586.914 91.084ZM594.031 91.168C593.536 91.168 593.097 91.0793 592.715 90.902C592.341 90.7153 592.047 90.4633 591.833 90.146C591.618 89.8193 591.511 89.446 591.511 89.026C591.511 88.6247 591.595 88.2653 591.763 87.948C591.94 87.6213 592.211 87.346 592.575 87.122C592.948 86.898 593.415 86.7393 593.975 86.646L596.775 86.184V87.276L594.269 87.696C593.783 87.78 593.429 87.934 593.205 88.158C592.99 88.382 592.883 88.6573 592.883 88.984C592.883 89.292 593.004 89.5487 593.247 89.754C593.499 89.9593 593.811 90.062 594.185 90.062C594.661 90.062 595.071 89.964 595.417 89.768C595.771 89.5627 596.047 89.2873 596.243 88.942C596.448 88.5967 596.551 88.214 596.551 87.794V85.876C596.551 85.4653 596.397 85.134 596.089 84.882C595.79 84.6207 595.393 84.49 594.899 84.49C594.469 84.49 594.087 84.602 593.751 84.826C593.424 85.0407 593.181 85.33 593.023 85.694L591.889 85.106C592.029 84.7607 592.253 84.4527 592.561 84.182C592.869 83.902 593.228 83.6827 593.639 83.524C594.049 83.3653 594.479 83.286 594.927 83.286C595.505 83.286 596.014 83.398 596.453 83.622C596.891 83.8367 597.232 84.14 597.475 84.532C597.727 84.9147 597.853 85.3627 597.853 85.876V91H596.579V89.572L596.817 89.656C596.658 89.9547 596.443 90.216 596.173 90.44C595.902 90.664 595.585 90.8413 595.221 90.972C594.857 91.1027 594.46 91.168 594.031 91.168ZM605.791 91.168C605.054 91.168 604.396 90.9953 603.817 90.65C603.248 90.3047 602.8 89.8333 602.473 89.236C602.147 88.6387 601.983 87.9667 601.983 87.22C601.983 86.464 602.147 85.792 602.473 85.204C602.8 84.616 603.248 84.1493 603.817 83.804C604.396 83.4587 605.054 83.286 605.791 83.286C606.286 83.286 606.748 83.3747 607.177 83.552C607.607 83.7293 607.985 83.9673 608.311 84.266C608.638 84.5647 608.876 84.9147 609.025 85.316L607.863 85.876C607.686 85.484 607.415 85.1667 607.051 84.924C606.687 84.672 606.267 84.546 605.791 84.546C605.334 84.546 604.919 84.6627 604.545 84.896C604.181 85.1293 603.892 85.4467 603.677 85.848C603.463 86.2493 603.355 86.7113 603.355 87.234C603.355 87.738 603.463 88.1953 603.677 88.606C603.892 89.0073 604.181 89.3247 604.545 89.558C604.919 89.7913 605.334 89.908 605.791 89.908C606.267 89.908 606.687 89.7867 607.051 89.544C607.415 89.292 607.686 88.9607 607.863 88.55L609.025 89.138C608.876 89.53 608.638 89.88 608.311 90.188C607.985 90.4867 607.607 90.7247 607.177 90.902C606.748 91.0793 606.286 91.168 605.791 91.168ZM612.843 91.168C612.348 91.168 611.91 91.0793 611.527 90.902C611.154 90.7153 610.86 90.4633 610.645 90.146C610.43 89.8193 610.323 89.446 610.323 89.026C610.323 88.6247 610.407 88.2653 610.575 87.948C610.752 87.6213 611.023 87.346 611.387 87.122C611.76 86.898 612.227 86.7393 612.787 86.646L615.587 86.184V87.276L613.081 87.696C612.596 87.78 612.241 87.934 612.017 88.158C611.802 88.382 611.695 88.6573 611.695 88.984C611.695 89.292 611.816 89.5487 612.059 89.754C612.311 89.9593 612.624 90.062 612.997 90.062C613.473 90.062 613.884 89.964 614.229 89.768C614.584 89.5627 614.859 89.2873 615.055 88.942C615.26 88.5967 615.363 88.214 615.363 87.794V85.876C615.363 85.4653 615.209 85.134 614.901 84.882C614.602 84.6207 614.206 84.49 613.711 84.49C613.282 84.49 612.899 84.602 612.563 84.826C612.236 85.0407 611.994 85.33 611.835 85.694L610.701 85.106C610.841 84.7607 611.065 84.4527 611.373 84.182C611.681 83.902 612.04 83.6827 612.451 83.524C612.862 83.3653 613.291 83.286 613.739 83.286C614.318 83.286 614.826 83.398 615.265 83.622C615.704 83.8367 616.044 84.14 616.287 84.532C616.539 84.9147 616.665 85.3627 616.665 85.876V91H615.391V89.572L615.629 89.656C615.47 89.9547 615.256 90.216 614.985 90.44C614.714 90.664 614.397 90.8413 614.033 90.972C613.669 91.1027 613.272 91.168 612.843 91.168ZM618.684 91V80.402H619.986V91H618.684ZM622.006 91V80.402H623.308V91H622.006ZM629.96 91.168C629.466 91.168 629.027 91.0793 628.644 90.902C628.271 90.7153 627.977 90.4633 627.762 90.146C627.548 89.8193 627.44 89.446 627.44 89.026C627.44 88.6247 627.524 88.2653 627.692 87.948C627.87 87.6213 628.14 87.346 628.504 87.122C628.878 86.898 629.344 86.7393 629.904 86.646L632.704 86.184V87.276L630.198 87.696C629.713 87.78 629.358 87.934 629.134 88.158C628.92 88.382 628.812 88.6573 628.812 88.984C628.812 89.292 628.934 89.5487 629.176 89.754C629.428 89.9593 629.741 90.062 630.114 90.062C630.59 90.062 631.001 89.964 631.346 89.768C631.701 89.5627 631.976 89.2873 632.172 88.942C632.378 88.5967 632.48 88.214 632.48 87.794V85.876C632.48 85.4653 632.326 85.134 632.018 84.882C631.72 84.6207 631.323 84.49 630.828 84.49C630.399 84.49 630.016 84.602 629.68 84.826C629.354 85.0407 629.111 85.33 628.952 85.694L627.818 85.106C627.958 84.7607 628.182 84.4527 628.49 84.182C628.798 83.902 629.158 83.6827 629.568 83.524C629.979 83.3653 630.408 83.286 630.856 83.286C631.435 83.286 631.944 83.398 632.382 83.622C632.821 83.8367 633.162 84.14 633.404 84.532C633.656 84.9147 633.782 85.3627 633.782 85.876V91H632.508V89.572L632.746 89.656C632.588 89.9547 632.373 90.216 632.102 90.44C631.832 90.664 631.514 90.8413 631.15 90.972C630.786 91.1027 630.39 91.168 629.96 91.168ZM637.537 91L634.947 83.454H636.389L638.447 89.768L637.943 89.754L639.959 83.454H641.191L643.207 89.754L642.703 89.768L644.775 83.454H646.203L643.613 91H642.367L640.379 84.7H640.771L638.783 91H637.537ZM649.306 91.168C648.811 91.168 648.373 91.0793 647.99 90.902C647.617 90.7153 647.323 90.4633 647.108 90.146C646.893 89.8193 646.786 89.446 646.786 89.026C646.786 88.6247 646.87 88.2653 647.038 87.948C647.215 87.6213 647.486 87.346 647.85 87.122C648.223 86.898 648.69 86.7393 649.25 86.646L652.05 86.184V87.276L649.544 87.696C649.059 87.78 648.704 87.934 648.48 88.158C648.265 88.382 648.158 88.6573 648.158 88.984C648.158 89.292 648.279 89.5487 648.522 89.754C648.774 89.9593 649.087 90.062 649.46 90.062C649.936 90.062 650.347 89.964 650.692 89.768C651.047 89.5627 651.322 89.2873 651.518 88.942C651.723 88.5967 651.826 88.214 651.826 87.794V85.876C651.826 85.4653 651.672 85.134 651.364 84.882C651.065 84.6207 650.669 84.49 650.174 84.49C649.745 84.49 649.362 84.602 649.026 84.826C648.699 85.0407 648.457 85.33 648.298 85.694L647.164 85.106C647.304 84.7607 647.528 84.4527 647.836 84.182C648.144 83.902 648.503 83.6827 648.914 83.524C649.325 83.3653 649.754 83.286 650.202 83.286C650.781 83.286 651.289 83.398 651.728 83.622C652.167 83.8367 652.507 84.14 652.75 84.532C653.002 84.9147 653.128 85.3627 653.128 85.876V91H651.854V89.572L652.092 89.656C651.933 89.9547 651.719 90.216 651.448 90.44C651.177 90.664 650.86 90.8413 650.496 90.972C650.132 91.1027 649.735 91.168 649.306 91.168ZM655.553 94.08C655.385 94.08 655.217 94.066 655.049 94.038C654.881 94.01 654.722 93.9633 654.573 93.898V92.736C654.675 92.7547 654.801 92.7733 654.951 92.792C655.109 92.82 655.263 92.834 655.413 92.834C655.851 92.834 656.183 92.736 656.407 92.54C656.64 92.3533 656.859 92.0267 657.065 91.56L657.541 90.426L657.513 91.56L654.293 83.454H655.707L658.213 89.894H657.793L660.285 83.454H661.727L658.325 91.896C658.166 92.2973 657.961 92.6613 657.709 92.988C657.466 93.324 657.167 93.59 656.813 93.786C656.458 93.982 656.038 94.08 655.553 94.08Z" fill="#1F1F1F" fill-opacity="0.64"/>
<defs>
<clipPath id="clip0_169_8134">
<rect width="40" height="40" fill="white" transform="translate(92)"/>
</clipPath>
<clipPath id="clip1_169_8134">
<rect width="40" height="40" fill="white" transform="translate(332)"/>
</clipPath>
<clipPath id="clip2_169_8134">
<rect width="40" height="40" fill="white" transform="translate(572)"/>
</clipPath>
</defs>
</svg>
